<svg id="svg" version="1.1" xmlns="http://www.w3.org/2000/svg" xmlns:xlink="http://www.w3.org/1999/xlink" width="400" height="400" viewBox="0, 0, 400,400"><g id="svgg"><path id="path0" d="M293.200 18.600 L 293.200 25.200 296.400 25.200 L 299.600 25.200 299.600 31.200 C 299.600 36.933,299.564 37.200,298.800 37.200 C 298.360 37.200,298.000 37.380,298.000 37.600 C 298.000 37.820,297.201 38.000,296.224 38.000 C 295.247 38.000,294.336 38.180,294.200 38.400 C 294.064 38.620,293.513 38.800,292.976 38.800 C 292.439 38.800,292.000 38.980,292.000 39.200 C 292.000 39.420,291.460 39.600,290.800 39.600 C 290.140 39.600,289.600 39.780,289.600 40.000 C 289.600 40.220,289.240 40.400,288.800 40.400 C 288.360 40.400,288.000 40.580,288.000 40.800 C 288.000 41.020,287.758 41.200,287.461 41.200 C 286.531 41.200,280.800 44.039,280.800 44.499 C 280.800 45.212,279.994 44.618,276.991 41.692 C 271.779 36.616,272.012 37.166,274.162 35.016 C 275.173 34.006,276.000 32.884,276.000 32.524 C 276.000 31.506,267.450 23.200,266.402 23.200 C 265.386 23.200,248.000 40.402,248.000 41.407 C 248.000 42.087,256.956 51.200,257.624 51.200 C 257.862 51.200,258.882 50.292,259.892 49.183 L 261.727 47.166 265.913 51.393 C 269.956 55.475,270.074 55.644,269.350 56.310 C 268.937 56.689,268.542 57.270,268.470 57.600 C 268.399 57.930,268.174 58.260,267.970 58.333 C 267.767 58.407,267.600 58.722,267.600 59.033 C 267.600 59.345,267.420 59.600,267.200 59.600 C 266.980 59.600,266.800 59.960,266.800 60.400 C 266.800 60.840,266.620 61.200,266.400 61.200 C 266.180 61.200,266.000 61.560,266.000 62.000 C 266.000 62.440,265.820 62.800,265.600 62.800 C 265.380 62.800,265.200 63.149,265.200 63.576 C 265.200 64.003,265.020 64.464,264.800 64.600 C 264.580 64.736,264.400 65.287,264.400 65.824 C 264.400 66.361,264.220 66.800,264.000 66.800 C 263.780 66.800,263.600 67.340,263.600 68.000 C 263.600 68.660,263.420 69.200,263.200 69.200 C 262.980 69.200,262.800 70.100,262.800 71.200 C 262.800 72.300,262.620 73.200,262.400 73.200 C 262.180 73.200,262.000 73.560,262.000 74.000 C 262.000 74.763,261.733 74.800,256.200 74.800 L 250.400 74.800 250.400 71.600 L 250.400 68.400 243.800 68.400 L 237.200 68.400 237.200 81.200 L 237.200 94.000 243.800 94.000 L 250.400 94.000 250.400 91.000 L 250.400 88.000 256.100 88.003 L 261.800 88.006 262.300 89.083 C 262.575 89.675,262.800 90.844,262.800 91.680 C 262.800 92.516,262.980 93.200,263.200 93.200 C 263.420 93.200,263.600 93.740,263.600 94.400 C 263.600 95.060,263.780 95.600,264.000 95.600 C 264.220 95.600,264.400 96.140,264.400 96.800 C 264.400 97.460,264.580 98.000,264.800 98.000 C 265.020 98.000,265.200 98.360,265.200 98.800 C 265.200 99.240,265.380 99.600,265.600 99.600 C 265.820 99.600,266.000 99.960,266.000 100.400 C 266.000 100.840,266.180 101.200,266.400 101.200 C 266.620 101.200,266.800 101.560,266.800 102.000 C 266.800 102.440,266.980 102.800,267.200 102.800 C 267.420 102.800,267.600 103.160,267.600 103.600 C 267.600 104.040,267.780 104.400,268.000 104.400 C 268.220 104.400,268.400 104.670,268.400 105.000 C 268.400 105.330,268.580 105.600,268.800 105.600 C 269.020 105.600,269.200 105.855,269.200 106.167 C 269.200 106.478,269.419 106.806,269.688 106.896 C 269.956 106.985,268.304 108.863,266.017 111.068 L 261.859 115.078 259.900 113.139 C 258.822 112.073,257.772 111.200,257.566 111.200 C 256.924 111.200,248.000 120.357,248.000 121.015 C 248.000 121.880,265.673 139.600,266.535 139.600 C 267.545 139.600,276.000 130.898,276.000 129.858 C 276.000 129.575,275.167 128.474,274.149 127.411 L 272.298 125.479 276.364 121.538 L 280.431 117.598 281.291 118.399 C 281.764 118.839,282.387 119.200,282.675 119.200 C 282.964 119.200,283.200 119.380,283.200 119.600 C 283.200 119.820,283.560 120.000,284.000 120.000 C 284.440 120.000,284.800 120.180,284.800 120.400 C 284.800 120.620,285.160 120.800,285.600 120.800 C 286.040 120.800,286.400 120.980,286.400 121.200 C 286.400 121.420,286.760 121.600,287.200 121.600 C 287.640 121.600,288.000 121.780,288.000 122.000 C 288.000 122.220,288.349 122.400,288.776 122.400 C 289.203 122.400,289.664 122.580,289.800 122.800 C 289.936 123.020,290.451 123.200,290.944 123.200 C 291.437 123.200,292.011 123.347,292.220 123.527 C 292.604 123.857,295.340 124.557,298.100 125.031 L 299.600 125.289 299.600 131.245 L 299.600 137.200 296.400 137.200 L 293.200 137.200 293.200 143.800 L 293.200 150.400 306.200 150.400 L 319.200 150.400 319.200 143.800 L 319.200 137.200 316.000 137.200 L 312.800 137.200 312.800 131.235 L 312.800 125.270 314.500 125.020 C 317.862 124.526,320.457 123.790,322.495 122.753 C 322.877 122.559,323.462 122.400,323.795 122.400 C 324.128 122.400,324.400 122.220,324.400 122.000 C 324.400 121.780,324.760 121.600,325.200 121.600 C 325.640 121.600,326.000 121.420,326.000 121.200 C 326.000 120.980,326.360 120.800,326.800 120.800 C 327.240 120.800,327.600 120.620,327.600 120.400 C 327.600 120.180,327.960 120.000,328.400 120.000 C 328.840 120.000,329.200 119.820,329.200 119.600 C 329.200 119.380,329.436 119.200,329.725 119.200 C 330.013 119.200,330.637 118.838,331.112 118.396 L 331.975 117.592 334.888 120.360 C 336.489 121.883,338.357 123.634,339.037 124.252 L 340.273 125.375 338.337 127.262 C 337.272 128.299,336.400 129.420,336.400 129.752 C 336.400 130.615,345.264 139.600,346.115 139.600 C 346.757 139.600,351.454 135.059,359.003 127.140 C 360.545 125.523,362.388 123.750,363.099 123.200 C 365.170 121.599,364.881 120.935,359.880 115.822 C 354.689 110.514,354.991 110.630,352.602 113.019 C 350.557 115.064,350.692 115.086,347.647 112.224 C 342.573 107.453,342.211 107.064,342.700 106.901 C 342.975 106.809,343.200 106.478,343.200 106.167 C 343.200 105.855,343.380 105.600,343.600 105.600 C 343.820 105.600,344.000 105.330,344.000 105.000 C 344.000 104.670,344.180 104.400,344.400 104.400 C 344.620 104.400,344.800 104.040,344.800 103.600 C 344.800 103.160,344.980 102.800,345.200 102.800 C 345.420 102.800,345.600 102.440,345.600 102.000 C 345.600 101.560,345.780 101.200,346.000 101.200 C 346.220 101.200,346.400 100.840,346.400 100.400 C 346.400 99.960,346.580 99.600,346.800 99.600 C 347.020 99.600,347.200 99.240,347.200 98.800 C 347.200 98.360,347.380 98.000,347.600 98.000 C 347.820 98.000,348.000 97.460,348.000 96.800 C 348.000 96.140,348.180 95.600,348.400 95.600 C 348.620 95.600,348.800 95.060,348.800 94.400 C 348.800 93.740,348.980 93.200,349.200 93.200 C 349.420 93.200,349.600 92.516,349.600 91.680 C 349.600 90.844,349.825 89.675,350.100 89.083 L 350.600 88.006 356.300 88.003 L 362.000 88.000 362.000 91.000 L 362.000 94.000 368.600 94.000 L 375.200 94.000 375.200 81.200 L 375.200 68.400 368.600 68.400 L 362.000 68.400 362.000 71.600 L 362.000 74.800 356.200 74.800 C 350.667 74.800,350.400 74.763,350.400 74.000 C 350.400 73.560,350.220 73.200,350.000 73.200 C 349.780 73.200,349.600 72.300,349.600 71.200 C 349.600 70.100,349.420 69.200,349.200 69.200 C 348.980 69.200,348.800 68.660,348.800 68.000 C 348.800 67.340,348.620 66.800,348.400 66.800 C 348.180 66.800,348.000 66.260,348.000 65.600 C 348.000 64.940,347.820 64.400,347.600 64.400 C 347.380 64.400,347.200 64.040,347.200 63.600 C 347.200 63.160,347.020 62.800,346.800 62.800 C 346.580 62.800,346.400 62.440,346.400 62.000 C 346.400 61.560,346.220 61.200,346.000 61.200 C 345.780 61.200,345.600 60.840,345.600 60.400 C 345.600 59.960,345.420 59.600,345.200 59.600 C 344.980 59.600,344.800 59.330,344.800 59.000 C 344.800 58.670,344.620 58.400,344.400 58.400 C 344.180 58.400,344.000 58.106,344.000 57.747 C 344.000 57.388,343.624 56.768,343.164 56.369 C 342.331 55.646,342.343 55.629,346.414 51.586 L 350.500 47.529 352.364 49.364 C 354.564 51.531,355.450 51.641,356.800 49.913 C 357.350 49.209,359.285 47.144,361.100 45.322 C 362.915 43.501,364.400 41.731,364.400 41.388 C 364.400 40.353,347.110 23.200,346.067 23.200 C 344.940 23.200,336.400 31.637,336.400 32.751 C 336.400 33.168,337.267 34.295,338.327 35.254 L 340.254 36.999 336.279 40.899 C 332.601 44.508,331.600 45.279,331.600 44.499 C 331.600 44.334,330.835 43.813,329.900 43.341 C 325.206 40.972,322.124 39.600,321.496 39.600 C 321.113 39.600,320.800 39.420,320.800 39.200 C 320.800 38.980,320.260 38.800,319.600 38.800 C 318.940 38.800,318.400 38.620,318.400 38.400 C 318.400 38.180,317.500 38.000,316.400 38.000 C 315.300 38.000,314.400 37.820,314.400 37.600 C 314.400 37.380,314.040 37.200,313.600 37.200 C 312.836 37.200,312.800 36.933,312.800 31.200 L 312.800 25.200 316.000 25.200 L 319.200 25.200 319.200 18.600 L 319.200 12.000 306.200 12.000 L 293.200 12.000 293.200 18.600 M109.537 257.286 C 106.895 258.759,106.416 260.374,106.301 268.200 L 106.200 275.000 99.000 275.200 C 88.008 275.505,87.600 275.949,87.600 287.612 C 87.600 299.089,88.204 299.725,99.300 299.932 L 106.400 300.065 106.407 306.932 C 106.417 317.946,107.112 318.600,118.800 318.600 C 130.425 318.600,131.170 317.884,131.189 306.700 L 131.200 300.000 137.900 299.989 C 149.033 299.970,149.970 299.016,149.989 287.687 C 150.008 275.994,149.242 275.200,137.951 275.200 L 131.200 275.200 131.200 268.449 C 131.200 257.053,130.486 256.379,118.481 256.435 C 111.736 256.467,110.856 256.551,109.537 257.286 " stroke="none" fill="#f24220" fill-rule="evenodd"></path><path id="path1" d="M38.800 168.800 C 38.800 169.020,38.440 169.200,38.000 169.200 C 37.560 169.200,37.200 169.380,37.200 169.600 C 37.200 169.820,36.959 170.000,36.664 170.000 C 35.993 170.000,32.646 173.195,32.470 174.003 C 32.399 174.331,32.174 174.660,31.970 174.733 C 31.767 174.807,31.600 175.201,31.600 175.610 C 31.600 176.018,31.420 176.464,31.200 176.600 C 30.491 177.038,30.676 202.470,31.398 203.854 C 31.726 204.484,31.996 204.846,31.998 204.658 C 31.999 204.469,32.495 204.829,33.100 205.458 L 34.200 206.600 108.134 206.477 C 172.239 206.370,182.038 206.277,181.847 205.778 C 181.726 205.462,180.605 203.447,179.356 201.302 C 178.108 199.156,176.707 196.680,176.243 195.800 C 175.779 194.920,175.310 194.110,175.200 194.000 C 175.090 193.890,174.758 193.370,174.462 192.845 C 173.047 190.331,172.413 189.234,171.200 187.200 C 170.479 185.990,169.577 184.460,169.196 183.800 C 168.567 182.708,163.454 173.797,161.509 170.400 C 161.068 169.630,160.503 168.868,160.254 168.706 C 159.530 168.237,38.800 168.330,38.800 168.800 " stroke="none" fill="#1c84cc" fill-rule="evenodd"></path><path id="path2" d="M260.378 48.700 L 259.000 50.200 260.500 48.822 C 261.896 47.538,262.184 47.200,261.878 47.200 C 261.812 47.200,261.137 47.875,260.378 48.700 M161.903 81.616 C 161.281 82.624,151.575 88.400,150.502 88.400 C 149.599 88.400,148.328 89.418,147.663 90.674 C 147.093 91.749,147.041 97.200,147.600 97.200 C 147.820 97.200,148.000 97.545,148.000 97.967 C 148.000 98.388,148.135 98.793,148.300 98.867 C 148.676 99.034,149.975 101.164,150.271 102.100 C 150.393 102.485,150.652 102.800,150.847 102.800 C 151.041 102.800,151.200 103.160,151.200 103.600 C 151.200 104.040,151.380 104.400,151.600 104.400 C 151.820 104.400,152.000 104.670,152.000 105.000 C 152.000 105.330,152.180 105.600,152.400 105.600 C 152.620 105.600,152.800 105.836,152.800 106.125 C 152.800 106.413,153.160 107.036,153.600 107.508 C 154.040 107.980,154.400 108.604,154.400 108.895 C 154.400 109.186,154.760 109.683,155.200 110.000 C 155.640 110.317,156.000 110.897,156.000 111.288 C 156.000 111.680,156.180 112.000,156.400 112.000 C 156.620 112.000,156.800 112.360,156.800 112.800 C 156.800 113.240,156.980 113.600,157.200 113.600 C 157.420 113.600,157.600 113.945,157.600 114.367 C 157.600 114.788,157.739 115.193,157.909 115.267 C 158.080 115.340,158.917 116.750,159.770 118.400 C 160.623 120.050,161.654 121.879,162.062 122.464 C 162.841 123.583,162.690 124.800,161.771 124.800 C 161.473 124.800,161.022 125.184,160.771 125.654 C 160.466 126.224,160.219 126.355,160.029 126.046 C 159.843 125.746,158.914 126.377,157.372 127.849 C 156.067 129.094,155.270 129.971,155.600 129.798 C 156.087 129.542,156.106 129.584,155.700 130.021 C 155.086 130.683,155.019 135.200,155.624 135.200 C 155.857 135.200,155.937 135.378,155.802 135.597 C 155.667 135.815,156.003 136.439,156.547 136.984 C 157.092 137.529,157.666 138.377,157.822 138.868 C 157.978 139.360,158.362 140.019,158.676 140.333 C 158.989 140.647,159.148 141.159,159.028 141.472 C 158.907 141.788,158.986 141.933,159.205 141.797 C 159.549 141.584,159.789 142.400,159.647 143.300 C 159.621 143.465,159.766 143.600,159.969 143.600 C 160.172 143.600,160.546 144.229,160.800 144.999 C 161.053 145.768,161.562 146.623,161.931 146.899 C 162.299 147.174,162.661 147.760,162.737 148.200 C 162.812 148.640,163.037 149.060,163.237 149.133 C 163.436 149.207,163.606 149.567,163.613 149.933 C 163.627 150.705,164.800 152.403,164.800 151.653 C 164.800 151.378,164.982 151.265,165.205 151.403 C 165.722 151.722,166.343 151.405,174.932 146.441 C 176.874 145.319,178.551 144.400,178.659 144.400 C 178.767 144.400,179.608 143.899,180.528 143.288 C 181.448 142.676,182.740 141.911,183.400 141.588 C 184.060 141.265,184.690 140.911,184.800 140.801 C 185.170 140.429,187.388 139.181,188.900 138.494 C 189.725 138.118,190.400 137.674,190.400 137.506 C 190.400 137.338,190.593 137.200,190.828 137.200 C 191.063 137.200,192.041 136.660,193.000 136.000 C 193.959 135.340,194.850 134.800,194.979 134.800 C 195.109 134.800,196.400 134.080,197.848 133.200 C 199.297 132.320,200.538 131.600,200.608 131.600 C 200.677 131.600,202.104 130.790,203.778 129.800 C 205.453 128.810,206.909 128.000,207.015 128.000 C 207.799 128.000,209.498 125.856,209.075 125.401 C 208.725 125.023,208.514 125.008,208.274 125.344 C 208.088 125.604,208.051 125.431,208.187 124.942 C 208.332 124.425,208.183 123.841,207.814 123.471 C 207.476 123.133,207.200 122.574,207.200 122.229 C 207.200 121.883,206.997 121.645,206.750 121.700 C 206.502 121.755,206.209 121.550,206.098 121.244 C 205.963 120.872,206.079 120.783,206.448 120.974 C 206.752 121.131,206.685 121.001,206.300 120.686 C 205.915 120.370,205.600 119.907,205.600 119.656 C 205.600 119.405,205.432 119.200,205.227 119.200 C 204.847 119.200,204.177 117.646,204.321 117.100 C 204.364 116.935,204.209 116.800,203.976 116.800 C 203.743 116.800,203.664 116.620,203.800 116.400 C 203.936 116.180,203.857 116.000,203.624 116.000 C 203.391 116.000,203.200 115.730,203.200 115.400 C 203.200 115.070,202.874 114.474,202.475 114.075 C 202.076 113.676,201.811 113.168,201.885 112.946 C 201.959 112.723,201.655 112.212,201.210 111.809 C 200.764 111.406,200.400 110.900,200.400 110.684 C 200.400 110.091,198.442 108.400,197.756 108.400 C 197.424 108.400,197.264 108.220,197.400 108.000 C 197.538 107.777,197.231 107.600,196.704 107.600 C 196.185 107.600,195.544 107.384,195.280 107.120 C 194.907 106.747,194.800 106.747,194.800 107.120 C 194.800 107.422,194.133 107.600,193.000 107.600 C 192.010 107.600,191.200 107.780,191.200 108.000 C 191.200 108.220,190.930 108.400,190.600 108.400 C 190.270 108.400,190.000 108.574,190.000 108.787 C 190.000 109.001,189.753 109.080,189.452 108.964 C 189.150 108.849,188.623 109.034,188.280 109.377 C 187.937 109.720,187.364 110.000,187.005 110.000 C 186.646 110.000,186.463 110.178,186.597 110.395 C 186.732 110.613,186.593 110.695,186.289 110.579 C 185.985 110.462,185.492 109.744,185.193 108.983 C 184.895 108.223,184.504 107.600,184.325 107.600 C 184.146 107.600,184.000 107.306,184.000 106.947 C 184.000 106.588,183.685 106.003,183.300 105.647 C 182.915 105.291,182.541 104.730,182.470 104.400 C 182.398 104.070,182.173 103.740,181.970 103.667 C 181.766 103.593,181.600 103.188,181.600 102.767 C 181.600 102.345,181.420 102.000,181.200 102.000 C 180.980 102.000,180.800 101.730,180.800 101.400 C 180.800 101.070,180.620 100.800,180.400 100.800 C 180.180 100.800,180.000 100.522,180.000 100.183 C 180.000 99.844,179.640 99.180,179.200 98.708 C 178.760 98.236,178.400 97.613,178.400 97.325 C 178.400 97.036,178.220 96.800,178.000 96.800 C 177.780 96.800,177.600 96.462,177.600 96.049 C 177.600 95.636,177.328 95.072,176.995 94.796 C 176.662 94.520,175.844 93.193,175.177 91.847 C 174.509 90.501,173.624 88.860,173.211 88.200 C 172.797 87.540,172.445 86.685,172.429 86.300 C 172.413 85.915,172.250 85.600,172.068 85.600 C 171.885 85.600,171.480 85.105,171.168 84.500 C 170.395 83.003,168.968 81.600,168.218 81.600 C 167.878 81.600,167.600 81.420,167.600 81.200 C 167.600 80.353,162.451 80.729,161.903 81.616 M227.400 138.711 C 226.740 139.090,226.110 139.490,226.000 139.600 C 225.604 139.996,223.385 141.254,222.700 141.471 C 222.315 141.593,222.000 141.852,222.000 142.047 C 222.000 142.241,221.640 142.400,221.200 142.400 C 220.760 142.400,220.400 142.580,220.400 142.800 C 220.400 143.020,220.207 143.200,219.972 143.200 C 219.737 143.200,218.792 143.711,217.872 144.335 C 216.952 144.959,215.615 145.723,214.900 146.032 C 214.185 146.342,213.600 146.710,213.600 146.851 C 213.600 146.992,213.285 147.210,212.900 147.336 C 212.515 147.462,211.369 148.068,210.352 148.682 C 209.336 149.297,206.141 151.146,203.252 152.792 C 197.797 155.899,197.562 156.159,198.670 157.850 C 199.364 158.909,199.681 159.452,201.958 163.476 L 203.316 165.876 207.158 163.688 C 211.731 161.083,212.826 160.452,215.200 159.052 C 216.190 158.468,217.675 157.680,218.500 157.301 C 219.325 156.922,220.000 156.474,220.000 156.306 C 220.000 156.138,220.270 156.000,220.600 156.000 C 220.930 156.000,221.200 155.854,221.200 155.675 C 221.200 155.496,221.830 155.102,222.600 154.800 C 223.370 154.498,224.000 154.125,224.000 153.972 C 224.000 153.819,224.315 153.587,224.700 153.458 C 225.085 153.328,225.940 152.898,226.600 152.502 C 229.065 151.024,232.636 148.975,233.700 148.429 C 235.033 147.746,235.044 147.584,233.891 145.692 C 233.391 144.871,232.716 143.660,232.391 143.000 C 232.066 142.340,231.485 141.451,231.100 141.025 C 230.715 140.598,230.400 140.013,230.400 139.725 C 230.400 139.436,230.220 139.200,230.000 139.200 C 229.780 139.200,229.600 138.930,229.600 138.600 C 229.600 137.820,228.889 137.855,227.400 138.711 M240.800 159.873 C 240.800 160.055,240.215 160.457,239.500 160.765 C 238.785 161.073,237.750 161.636,237.200 162.016 C 236.650 162.396,235.525 163.087,234.700 163.553 C 233.875 164.019,232.570 164.760,231.800 165.200 C 231.030 165.640,229.815 166.334,229.100 166.742 C 226.639 168.147,221.400 171.274,221.233 171.438 C 221.073 171.594,221.978 173.579,222.399 174.000 C 222.771 174.370,224.019 176.588,224.706 178.100 C 225.082 178.925,225.526 179.600,225.694 179.600 C 225.862 179.600,226.000 179.851,226.000 180.157 C 226.000 181.569,227.532 180.966,234.200 176.933 C 235.080 176.400,236.115 175.862,236.500 175.736 C 236.885 175.610,237.200 175.348,237.200 175.153 C 237.200 174.959,237.560 174.800,238.000 174.800 C 238.440 174.800,238.800 174.641,238.800 174.447 C 238.800 174.252,239.115 173.993,239.500 173.871 C 240.185 173.654,242.404 172.396,242.800 172.000 C 242.998 171.802,244.247 171.064,245.800 170.227 C 247.581 169.267,247.614 169.217,247.092 168.281 C 246.821 167.797,246.510 167.310,246.400 167.200 C 246.213 167.013,245.678 166.102,244.638 164.200 C 244.397 163.760,244.110 163.310,244.000 163.200 C 243.890 163.090,243.406 162.280,242.924 161.400 C 242.141 159.972,240.800 159.007,240.800 159.873 M165.400 176.400 C 165.741 177.060,166.111 177.600,166.221 177.600 C 166.331 177.600,166.141 177.060,165.800 176.400 C 165.459 175.740,165.089 175.200,164.979 175.200 C 164.869 175.200,165.059 175.740,165.400 176.400 M253.179 181.765 C 252.641 182.058,249.803 183.670,246.872 185.349 C 243.942 187.027,241.377 188.400,241.172 188.400 C 240.968 188.400,240.799 188.535,240.797 188.700 C 240.795 188.865,240.390 189.198,239.897 189.440 C 237.489 190.622,235.387 191.830,235.267 192.100 C 235.193 192.265,234.878 192.400,234.567 192.400 C 234.255 192.400,233.999 192.535,233.997 192.700 C 233.995 192.865,233.590 193.198,233.097 193.440 C 231.410 194.269,228.600 195.800,228.400 196.000 C 228.028 196.372,225.809 197.620,224.300 198.306 C 222.945 198.923,222.288 200.106,223.100 200.467 C 223.476 200.634,224.775 202.764,225.071 203.700 C 225.193 204.085,225.452 204.400,225.647 204.400 C 225.841 204.400,226.000 204.760,226.000 205.200 C 226.000 205.640,226.180 206.000,226.400 206.000 C 226.620 206.000,226.800 206.197,226.800 206.438 C 226.800 208.425,229.017 209.386,230.400 207.999 C 230.510 207.889,231.140 207.529,231.800 207.200 C 232.460 206.871,233.090 206.511,233.200 206.401 C 233.451 206.149,234.927 205.306,237.000 204.230 C 237.880 203.774,238.690 203.310,238.800 203.200 C 238.910 203.090,239.430 202.758,239.955 202.462 C 241.760 201.446,243.408 200.498,247.000 198.410 C 251.762 195.642,253.868 194.453,255.800 193.439 C 256.680 192.978,257.490 192.510,257.600 192.399 C 257.710 192.289,258.272 191.956,258.849 191.659 C 260.075 191.028,260.007 190.818,256.938 185.707 C 255.982 184.116,255.200 182.653,255.200 182.456 C 255.200 181.592,254.155 181.235,253.179 181.765 M265.400 203.528 C 264.740 203.927,263.210 204.780,262.000 205.424 C 260.790 206.067,259.710 206.685,259.600 206.797 C 259.212 207.191,256.991 208.452,256.300 208.671 C 255.915 208.793,255.600 209.052,255.600 209.247 C 255.600 209.441,255.240 209.600,254.800 209.600 C 254.360 209.600,254.000 209.759,254.000 209.953 C 254.000 210.148,253.685 210.407,253.300 210.529 C 252.613 210.746,250.394 212.005,250.000 212.401 C 249.890 212.511,249.260 212.871,248.600 213.201 C 246.503 214.248,245.872 215.286,246.762 216.220 C 246.962 216.429,247.502 217.275,247.962 218.100 C 251.443 224.333,251.547 224.470,252.553 224.156 C 253.019 224.011,253.490 223.781,253.600 223.646 C 253.710 223.511,254.205 223.175,254.700 222.900 C 255.195 222.625,256.005 222.175,256.500 221.900 C 256.995 221.625,257.490 221.310,257.600 221.200 C 257.710 221.090,258.230 220.758,258.755 220.462 C 260.922 219.242,262.295 218.458,264.000 217.466 C 264.990 216.891,267.283 215.574,269.096 214.541 L 272.391 212.662 271.396 210.881 C 270.848 209.901,270.400 208.852,270.400 208.550 C 270.400 208.247,270.252 208.000,270.071 208.000 C 269.787 208.000,269.031 206.745,267.405 203.571 C 266.922 202.629,266.890 202.628,265.400 203.528 M278.400 224.753 C 278.400 224.948,278.085 225.207,277.700 225.329 C 277.015 225.546,274.796 226.804,274.400 227.200 C 274.290 227.310,273.770 227.642,273.245 227.938 C 271.775 228.765,269.744 229.918,268.200 230.800 C 267.430 231.240,266.170 231.960,265.400 232.400 C 264.630 232.840,263.415 233.537,262.700 233.950 C 261.985 234.362,259.600 235.732,257.400 236.995 C 255.200 238.258,252.770 239.658,252.000 240.107 C 251.230 240.556,249.935 241.284,249.122 241.724 L 247.644 242.525 248.684 244.362 C 253.799 253.401,253.212 252.831,255.662 251.135 C 256.246 250.731,256.812 250.400,256.921 250.400 C 257.029 250.400,258.262 249.708,259.659 248.863 C 261.057 248.017,263.010 246.873,264.000 246.320 C 264.990 245.766,266.610 244.830,267.600 244.239 C 268.590 243.648,269.715 243.062,270.100 242.936 C 270.485 242.810,270.800 242.548,270.800 242.353 C 270.800 242.159,271.160 242.000,271.600 242.000 C 272.040 242.000,272.400 241.841,272.400 241.647 C 272.400 241.452,272.715 241.193,273.100 241.071 C 273.785 240.854,276.004 239.596,276.400 239.200 C 276.510 239.090,277.030 238.758,277.555 238.462 C 278.080 238.167,279.115 237.582,279.855 237.162 C 280.595 236.743,281.875 236.023,282.700 235.562 C 284.940 234.311,284.962 234.242,283.776 232.143 C 283.172 231.074,282.301 229.480,281.839 228.600 C 281.378 227.720,280.910 226.910,280.799 226.800 C 280.689 226.690,280.344 226.105,280.032 225.500 C 279.501 224.471,278.400 223.967,278.400 224.753 M309.800 242.373 C 309.360 242.547,308.791 242.611,308.536 242.516 C 307.956 242.299,305.600 243.488,305.600 243.998 C 305.600 244.205,305.300 244.260,304.934 244.119 C 304.506 243.955,304.366 244.021,304.541 244.304 C 304.691 244.547,304.630 244.858,304.407 244.996 C 304.183 245.134,303.989 245.012,303.975 244.724 C 303.961 244.436,303.795 244.582,303.607 245.049 C 303.357 245.666,302.975 245.865,302.201 245.780 C 301.386 245.691,301.194 245.806,301.374 246.276 C 301.539 246.705,301.428 246.819,301.005 246.657 C 300.672 246.529,300.400 246.629,300.400 246.879 C 300.400 247.129,300.280 247.213,300.132 247.066 C 299.985 246.919,299.580 247.054,299.232 247.368 C 298.885 247.681,298.337 247.996,298.016 248.068 C 297.265 248.237,296.334 249.121,295.499 250.456 C 294.912 251.395,286.880 256.400,285.960 256.400 C 285.762 256.400,285.600 256.538,285.600 256.706 C 285.600 256.874,284.925 257.318,284.100 257.694 C 282.591 258.380,280.372 259.628,280.000 260.000 C 279.604 260.396,277.385 261.654,276.700 261.871 C 276.315 261.993,276.000 262.252,276.000 262.447 C 276.000 262.641,275.655 262.800,275.233 262.800 C 274.812 262.800,274.407 262.935,274.333 263.100 C 274.166 263.476,272.036 264.775,271.100 265.071 C 270.715 265.193,270.400 265.452,270.400 265.647 C 270.400 265.841,270.229 266.000,270.019 266.000 C 269.810 266.000,267.515 267.235,264.919 268.744 C 262.324 270.253,259.480 271.871,258.600 272.341 C 257.720 272.810,256.100 273.743,255.000 274.415 C 253.900 275.086,252.685 275.738,252.300 275.864 C 251.915 275.990,251.600 276.219,251.600 276.372 C 251.600 276.525,250.970 276.898,250.200 277.200 C 249.430 277.502,248.800 277.875,248.800 278.028 C 248.800 278.181,248.485 278.413,248.100 278.542 C 247.715 278.672,246.860 279.102,246.200 279.498 C 241.665 282.218,239.909 283.200,239.579 283.200 C 239.370 283.200,239.200 283.380,239.200 283.600 C 239.200 283.820,239.043 284.000,238.851 284.000 C 238.659 284.000,236.729 285.004,234.561 286.232 C 231.585 287.917,230.357 288.411,229.546 288.249 C 228.820 288.104,228.400 288.224,228.247 288.621 C 228.124 288.944,227.882 289.186,227.711 289.160 C 227.027 289.057,225.643 289.711,225.443 290.233 C 225.326 290.538,224.955 290.681,224.615 290.550 C 224.063 290.338,223.808 290.781,223.953 291.700 C 223.994 291.964,222.729 292.178,221.900 292.047 C 221.735 292.021,221.600 292.180,221.600 292.400 C 221.600 292.620,221.465 292.779,221.300 292.753 C 220.458 292.620,219.875 292.894,219.006 293.832 C 218.480 294.399,217.797 294.901,217.488 294.946 C 216.448 295.099,213.714 298.438,213.822 299.423 C 213.894 300.075,213.759 300.282,213.362 300.130 C 213.053 300.011,212.800 300.114,212.800 300.357 C 212.800 300.601,213.025 300.803,213.300 300.806 C 213.610 300.810,213.648 300.924,213.400 301.106 C 212.306 301.910,211.990 302.722,212.376 303.737 C 212.627 304.398,212.630 304.858,212.385 305.009 C 212.173 305.140,212.000 305.427,212.000 305.647 C 212.000 305.867,212.149 305.955,212.332 305.842 C 212.702 305.613,212.685 307.048,212.313 307.420 C 212.183 307.550,212.320 308.126,212.618 308.700 C 212.916 309.273,213.065 309.895,212.950 310.081 C 212.835 310.267,212.979 310.370,213.270 310.310 C 213.609 310.240,213.764 310.533,213.701 311.123 C 213.644 311.653,213.771 311.942,213.999 311.801 C 214.218 311.665,214.613 312.060,214.876 312.677 C 215.140 313.295,216.077 314.517,216.959 315.392 C 217.840 316.268,218.421 316.718,218.250 316.392 C 218.079 316.067,218.312 316.224,218.769 316.743 C 219.226 317.263,219.856 317.587,220.173 317.466 C 220.490 317.344,220.818 317.453,220.902 317.706 C 221.098 318.294,228.400 318.483,228.400 317.901 C 228.400 317.682,228.705 317.749,229.077 318.051 C 229.537 318.424,229.657 318.440,229.453 318.100 C 229.240 317.745,229.495 317.600,230.334 317.600 C 231.008 317.600,231.612 317.346,231.742 317.007 C 231.883 316.639,232.229 316.513,232.650 316.675 C 233.111 316.852,233.238 316.785,233.042 316.468 C 232.856 316.167,233.055 316.000,233.600 316.000 C 234.066 316.000,234.336 315.820,234.200 315.600 C 234.064 315.380,234.280 315.200,234.680 315.200 C 235.080 315.200,235.632 314.840,235.907 314.400 C 236.207 313.920,236.845 313.598,237.503 313.594 C 238.358 313.589,238.468 313.502,238.000 313.200 C 237.384 312.802,238.160 312.590,239.540 312.779 C 239.837 312.820,239.962 312.661,239.817 312.427 C 239.671 312.191,239.845 312.000,240.205 312.000 C 241.004 312.000,241.864 311.184,242.057 310.244 C 242.136 309.860,242.740 309.243,243.400 308.873 C 244.060 308.503,244.660 308.065,244.733 307.900 C 244.807 307.735,245.122 307.600,245.433 307.600 C 245.745 307.600,246.000 307.420,246.000 307.200 C 246.000 306.980,246.360 306.800,246.800 306.800 C 247.240 306.800,247.600 306.620,247.600 306.400 C 247.600 306.180,247.870 306.000,248.200 306.000 C 248.530 306.000,248.800 305.862,248.800 305.694 C 248.800 305.526,249.475 305.078,250.300 304.699 C 252.048 303.896,254.943 302.229,256.462 301.153 C 257.046 300.739,257.648 300.400,257.800 300.400 C 257.952 300.400,258.554 300.068,259.138 299.662 C 259.722 299.257,261.370 298.294,262.800 297.524 C 266.321 295.627,268.405 294.437,269.600 293.639 C 270.150 293.272,271.140 292.708,271.800 292.386 C 272.460 292.065,273.090 291.711,273.200 291.601 C 273.310 291.490,274.120 291.026,275.000 290.570 C 277.069 289.496,278.548 288.652,278.800 288.400 C 279.196 288.004,281.415 286.746,282.100 286.529 C 282.485 286.407,282.800 286.181,282.800 286.028 C 282.800 285.875,283.430 285.502,284.200 285.200 C 284.970 284.898,285.600 284.504,285.600 284.325 C 285.600 284.146,285.764 284.000,285.965 284.000 C 286.166 284.000,288.967 282.470,292.188 280.600 C 295.410 278.730,298.216 277.200,298.423 277.200 C 298.630 277.200,298.800 277.054,298.800 276.875 C 298.800 276.696,299.430 276.302,300.200 276.000 C 300.970 275.698,301.600 275.338,301.600 275.200 C 301.600 275.062,302.230 274.702,303.000 274.400 C 303.770 274.098,304.400 273.748,304.400 273.623 C 304.400 273.163,307.041 272.236,308.400 272.218 C 309.328 272.206,309.764 272.025,309.694 271.681 C 309.635 271.396,309.815 271.192,310.094 271.228 C 311.296 271.386,312.000 271.160,312.000 270.616 C 312.000 270.272,312.697 269.834,313.700 269.549 C 314.635 269.283,315.580 268.889,315.800 268.674 C 316.062 268.418,315.993 268.398,315.600 268.618 C 315.083 268.907,315.076 268.860,315.549 268.277 C 315.851 267.905,316.425 267.600,316.825 267.600 C 317.225 267.600,317.664 267.420,317.800 267.200 C 317.936 266.980,318.402 266.800,318.836 266.800 C 319.270 266.800,319.728 266.531,319.854 266.202 C 319.981 265.874,320.243 265.703,320.437 265.823 C 320.632 265.943,320.695 265.791,320.577 265.485 C 320.460 265.179,320.687 264.674,321.082 264.364 C 321.737 263.850,321.752 263.862,321.251 264.500 C 320.902 264.945,320.863 265.200,321.143 265.200 C 321.386 265.200,321.698 264.750,321.836 264.200 C 321.974 263.650,322.356 263.200,322.686 263.200 C 323.055 263.200,323.197 262.969,323.055 262.600 C 322.912 262.227,323.058 262.000,323.440 262.000 C 323.884 262.000,323.979 261.765,323.784 261.150 C 323.603 260.578,323.659 260.389,323.957 260.574 C 324.242 260.749,324.400 260.438,324.400 259.704 C 324.400 259.075,324.625 258.322,324.900 258.030 C 325.300 257.606,325.300 257.463,324.900 257.317 C 324.307 257.099,324.223 256.000,324.800 256.000 C 325.020 256.000,325.200 255.539,325.200 254.976 C 325.200 254.264,325.048 254.044,324.700 254.253 C 324.360 254.457,324.376 254.337,324.749 253.877 C 325.194 253.329,325.202 253.084,324.792 252.590 C 324.514 252.255,324.393 251.874,324.524 251.743 C 324.655 251.612,324.494 251.237,324.167 250.910 C 323.830 250.573,323.677 249.987,323.813 249.558 C 323.988 249.009,323.853 248.791,323.327 248.768 C 322.867 248.748,322.792 248.660,323.124 248.527 C 323.765 248.271,322.595 246.800,321.751 246.800 C 321.446 246.800,321.323 246.546,321.457 246.195 C 321.629 245.746,321.507 245.661,320.979 245.863 C 320.492 246.050,320.360 245.989,320.558 245.668 C 320.730 245.390,320.603 245.200,320.247 245.200 C 319.917 245.200,319.519 244.992,319.362 244.738 C 319.168 244.425,319.257 244.385,319.638 244.615 C 320.118 244.904,320.119 244.854,319.647 244.272 C 319.276 243.815,318.941 243.717,318.630 243.975 C 318.316 244.236,318.013 244.112,317.687 243.591 C 317.381 243.100,316.965 242.915,316.538 243.079 C 316.051 243.266,315.958 243.192,316.197 242.805 C 316.440 242.412,316.316 242.329,315.719 242.485 C 315.276 242.601,314.609 242.525,314.236 242.316 C 313.773 242.057,313.354 242.105,312.914 242.468 C 312.407 242.886,312.234 242.893,312.102 242.500 C 311.914 241.943,311.011 241.893,309.800 242.373 M118.800 256.386 C 127.026 256.618,127.496 256.705,129.399 258.359 L 130.597 259.400 129.599 258.265 C 127.799 256.220,126.633 255.992,118.451 256.083 L 111.000 256.167 118.800 256.386 M109.042 257.169 C 107.824 257.972,106.148 260.281,106.516 260.649 C 106.635 260.768,107.031 260.234,107.397 259.463 C 107.796 258.622,108.609 257.802,109.431 257.412 C 110.184 257.055,110.800 256.681,110.800 256.581 C 110.800 256.214,110.171 256.425,109.042 257.169 M106.089 267.900 L 106.000 274.800 99.100 274.802 C 90.947 274.804,87.526 276.235,87.623 279.600 C 87.632 279.930,87.997 279.465,88.433 278.566 C 89.868 275.612,91.181 275.200,99.167 275.200 C 104.393 275.200,106.072 275.077,106.223 274.685 C 106.332 274.401,106.366 271.206,106.300 267.585 L 106.179 261.000 106.089 267.900 M131.289 268.700 L 131.200 275.200 137.951 275.200 C 146.508 275.200,147.828 275.664,149.367 279.212 C 149.698 279.975,149.976 280.355,149.984 280.054 C 150.091 276.346,146.673 274.800,138.372 274.800 L 131.620 274.800 131.499 268.500 L 131.378 262.200 131.289 268.700 M87.365 287.400 C 87.366 291.360,87.426 292.926,87.498 290.880 C 87.571 288.834,87.571 285.594,87.498 283.680 C 87.424 281.766,87.365 283.440,87.365 287.400 M150.077 288.000 C 149.911 299.000,148.926 299.970,137.900 299.989 L 131.200 300.000 131.200 306.604 C 131.200 315.254,130.633 316.691,126.600 318.270 C 125.469 318.712,125.456 318.741,126.375 318.770 C 130.148 318.887,131.600 315.685,131.600 307.246 L 131.600 300.400 137.900 300.398 C 149.515 300.394,150.585 299.256,150.309 287.200 L 150.176 281.400 150.077 288.000 M87.619 295.400 C 87.556 296.970,90.899 300.034,92.600 299.964 C 93.232 299.938,93.182 299.865,92.365 299.618 C 90.618 299.088,89.193 297.948,88.397 296.440 C 87.978 295.648,87.628 295.180,87.619 295.400 M99.900 300.299 L 106.000 300.421 106.000 306.962 C 106.000 315.671,107.564 318.924,111.674 318.764 C 112.395 318.736,112.301 318.642,111.248 318.339 C 107.065 317.136,106.400 315.555,106.400 306.816 L 106.400 300.000 100.100 300.089 L 93.800 300.178 99.900 300.299 M295.800 308.075 C 291.620 310.513,287.615 312.843,286.900 313.254 C 284.466 314.651,283.003 315.499,278.000 318.412 C 275.250 320.013,272.604 321.520,272.121 321.761 C 271.235 322.203,270.564 323.600,271.237 323.600 C 271.437 323.600,271.600 323.960,271.600 324.400 C 271.600 324.840,271.780 325.200,272.000 325.200 C 272.220 325.200,272.400 325.571,272.400 326.024 C 272.400 326.477,272.580 326.736,272.800 326.600 C 273.020 326.464,273.200 326.633,273.200 326.976 C 273.200 327.319,273.380 327.600,273.600 327.600 C 273.820 327.600,274.000 327.878,274.000 328.217 C 274.000 328.557,274.450 329.320,275.000 329.913 C 275.550 330.507,276.000 331.399,276.000 331.896 C 276.000 332.393,276.159 332.800,276.353 332.800 C 276.548 332.800,276.806 333.178,276.926 333.640 C 277.066 334.175,277.324 334.371,277.635 334.178 C 277.951 333.983,278.021 334.043,277.832 334.348 C 277.520 334.854,278.396 337.200,278.898 337.200 C 279.064 337.200,279.200 337.455,279.200 337.767 C 279.200 338.078,279.695 338.722,280.300 339.196 C 280.905 339.671,281.130 339.933,280.800 339.779 C 280.470 339.625,280.695 339.979,281.300 340.566 C 282.308 341.543,282.576 342.088,282.447 342.900 C 282.421 343.065,282.625 343.203,282.900 343.206 C 283.233 343.210,283.200 343.342,282.800 343.600 C 282.400 343.858,282.367 343.990,282.700 343.994 C 282.975 343.997,283.203 344.405,283.206 344.900 C 283.211 345.564,283.303 345.656,283.559 345.252 C 283.813 344.851,284.035 345.093,284.384 346.152 C 284.647 346.948,285.028 347.600,285.231 347.600 C 285.434 347.600,285.600 348.050,285.600 348.600 C 285.600 349.185,285.830 349.600,286.153 349.600 C 286.458 349.600,286.812 349.915,286.942 350.300 C 287.170 350.980,287.996 352.396,288.400 352.800 C 289.207 353.607,288.608 354.583,286.700 355.568 C 286.095 355.880,285.600 356.285,285.600 356.468 C 285.600 356.650,285.240 356.800,284.800 356.800 C 284.360 356.800,284.000 356.980,284.000 357.200 C 284.000 357.420,283.640 357.600,283.200 357.600 C 282.760 357.600,282.400 357.764,282.400 357.964 C 282.400 358.165,281.545 358.740,280.500 359.244 C 279.455 359.747,278.362 360.393,278.071 360.679 C 277.781 360.966,277.286 361.200,276.971 361.200 C 276.657 361.200,276.400 361.380,276.400 361.600 C 276.400 361.820,276.040 362.000,275.600 362.000 C 275.160 362.000,274.800 362.180,274.800 362.400 C 274.800 362.620,274.480 362.800,274.088 362.800 C 273.697 362.800,273.117 363.160,272.800 363.600 C 272.483 364.040,272.002 364.400,271.732 364.400 C 271.462 364.400,270.737 365.075,270.120 365.900 C 269.504 366.725,268.865 367.460,268.700 367.533 C 268.535 367.607,268.400 368.012,268.400 368.433 C 268.400 368.855,268.220 369.200,268.000 369.200 C 267.780 369.200,267.600 369.639,267.600 370.176 C 267.600 370.713,267.420 371.264,267.200 371.400 C 266.980 371.536,266.800 373.167,266.800 375.024 C 266.800 377.008,266.965 378.400,267.200 378.400 C 267.420 378.400,267.600 378.940,267.600 379.600 C 267.600 380.260,267.780 380.800,268.000 380.800 C 268.220 380.800,268.400 381.074,268.400 381.409 C 268.400 382.201,272.599 386.400,273.391 386.400 C 273.726 386.400,274.000 386.580,274.000 386.800 C 274.000 387.020,274.349 387.200,274.776 387.200 C 275.203 387.200,275.650 387.357,275.768 387.549 C 276.063 388.026,283.371 388.129,284.274 387.670 C 284.673 387.467,285.810 386.888,286.800 386.384 C 287.790 385.879,289.352 384.957,290.272 384.333 C 291.192 383.710,292.144 383.200,292.389 383.200 C 292.633 383.200,293.220 382.840,293.692 382.400 C 294.164 381.960,294.787 381.600,295.075 381.600 C 295.364 381.600,295.600 381.420,295.600 381.200 C 295.600 380.980,295.960 380.800,296.400 380.800 C 296.840 380.800,297.200 380.620,297.200 380.400 C 297.200 380.180,297.478 380.000,297.817 380.000 C 298.156 380.000,298.820 379.640,299.292 379.200 C 299.764 378.760,300.656 378.176,301.275 377.903 C 301.894 377.629,302.400 377.269,302.400 377.102 C 302.400 376.936,302.790 376.800,303.267 376.800 C 303.743 376.800,304.018 376.685,303.877 376.544 C 303.736 376.403,305.101 375.548,306.910 374.644 C 308.720 373.740,310.260 372.865,310.333 372.700 C 310.407 372.535,310.812 372.400,311.233 372.400 C 311.655 372.400,312.000 372.242,312.000 372.049 C 312.000 371.855,312.540 371.473,313.200 371.200 C 313.860 370.927,314.400 370.545,314.400 370.351 C 314.400 370.158,314.760 370.000,315.200 370.000 C 315.640 370.000,316.000 369.820,316.000 369.600 C 316.000 369.380,316.360 369.200,316.800 369.200 C 317.240 369.200,317.600 369.020,317.600 368.800 C 317.600 368.580,317.836 368.400,318.125 368.400 C 318.413 368.400,319.036 368.040,319.508 367.600 C 319.980 367.160,320.655 366.800,321.007 366.800 C 321.359 366.800,321.536 366.620,321.400 366.400 C 321.264 366.180,321.523 366.000,321.976 366.000 C 322.429 366.000,322.800 365.842,322.800 365.649 C 322.800 365.455,323.340 365.073,324.000 364.800 C 324.660 364.527,325.200 364.145,325.200 363.951 C 325.200 363.758,325.560 363.600,326.000 363.600 C 326.440 363.600,326.800 363.420,326.800 363.200 C 326.800 362.980,327.160 362.800,327.600 362.800 C 328.040 362.800,328.400 362.620,328.400 362.400 C 328.400 362.180,328.636 362.000,328.925 362.000 C 329.213 362.000,329.836 361.640,330.308 361.200 C 330.780 360.760,331.444 360.400,331.783 360.400 C 332.122 360.400,332.400 360.220,332.400 360.000 C 332.400 359.780,332.670 359.600,333.000 359.600 C 333.330 359.600,333.600 359.420,333.600 359.200 C 333.600 358.980,333.865 358.800,334.188 358.800 C 334.512 358.800,336.147 357.990,337.822 357.000 C 339.496 356.010,341.031 355.200,341.233 355.200 C 341.435 355.200,341.600 355.020,341.600 354.800 C 341.600 354.580,341.960 354.400,342.400 354.400 C 342.840 354.400,343.200 354.220,343.200 354.000 C 343.200 353.780,343.436 353.600,343.725 353.600 C 344.013 353.600,344.636 353.240,345.108 352.800 C 345.580 352.360,346.244 352.000,346.583 352.000 C 346.922 352.000,347.200 351.820,347.200 351.600 C 347.200 351.380,347.478 351.200,347.817 351.200 C 348.156 351.200,348.820 350.840,349.292 350.400 C 349.764 349.960,350.387 349.600,350.675 349.600 C 350.964 349.600,351.200 349.420,351.200 349.200 C 351.200 348.980,351.473 348.800,351.807 348.800 C 352.536 348.800,354.497 346.823,356.358 344.212 C 358.144 341.707,358.609 336.241,357.356 332.473 C 356.537 330.009,352.532 325.600,351.114 325.600 C 350.721 325.600,350.400 325.420,350.400 325.200 C 350.400 324.980,349.691 324.800,348.824 324.800 C 347.957 324.800,347.136 324.620,347.000 324.400 C 346.864 324.180,345.863 324.000,344.776 324.000 C 343.689 324.000,342.800 324.180,342.800 324.400 C 342.800 324.620,342.277 324.800,341.638 324.800 C 340.548 324.800,334.998 327.401,332.519 329.074 C 331.903 329.489,330.860 330.092,330.200 330.414 C 329.540 330.735,328.910 331.089,328.800 331.199 C 328.406 331.595,326.187 332.854,325.500 333.071 C 325.115 333.193,324.800 333.452,324.800 333.647 C 324.800 333.841,324.440 334.000,324.000 334.000 C 323.560 334.000,323.200 334.161,323.200 334.357 C 323.200 334.554,322.923 334.821,322.584 334.951 C 322.215 335.092,322.008 334.989,322.068 334.694 C 322.123 334.422,321.968 333.840,321.723 333.400 C 321.479 332.960,321.238 332.420,321.189 332.200 C 320.961 331.195,320.686 330.823,320.331 331.042 C 320.120 331.173,319.987 331.037,320.036 330.740 C 320.169 329.944,319.572 328.770,319.163 329.023 C 318.968 329.143,318.916 328.962,319.047 328.621 C 319.178 328.279,319.098 328.000,318.870 328.000 C 318.641 328.000,318.339 327.637,318.198 327.194 C 318.057 326.751,317.771 326.494,317.561 326.624 C 317.352 326.753,317.228 326.711,317.286 326.530 C 317.434 326.073,315.960 322.307,315.725 322.541 C 315.621 322.646,315.736 323.107,315.982 323.566 C 316.227 324.025,316.336 324.400,316.223 324.400 C 315.719 324.400,314.509 321.229,314.945 321.050 C 315.255 320.923,315.241 320.853,314.900 320.832 C 314.625 320.814,314.400 320.452,314.400 320.027 C 314.400 319.602,314.037 319.139,313.594 318.998 C 313.151 318.857,312.875 318.602,312.981 318.430 C 313.088 318.258,312.916 317.776,312.600 317.359 C 312.284 316.942,312.020 316.274,312.013 315.876 C 312.006 315.478,311.820 315.264,311.600 315.400 C 311.380 315.536,311.200 315.367,311.200 315.024 C 311.200 314.681,311.020 314.400,310.800 314.400 C 310.580 314.400,310.400 314.164,310.400 313.875 C 310.400 313.587,310.040 312.964,309.600 312.492 C 309.160 312.020,308.800 311.266,308.800 310.817 C 308.800 310.368,308.620 310.000,308.400 310.000 C 308.180 310.000,308.000 309.653,308.000 309.229 C 308.000 308.804,307.730 308.187,307.400 307.857 C 307.070 307.527,306.800 306.974,306.800 306.629 C 306.800 306.283,306.664 306.000,306.498 306.000 C 306.331 306.000,305.956 305.460,305.664 304.800 C 304.858 302.979,304.117 303.225,295.800 308.075 M80.668 343.900 C 101.386 343.957,135.406 343.957,156.268 343.900 C 177.131 343.843,160.180 343.796,118.600 343.796 C 77.020 343.796,59.951 343.843,80.668 343.900 " stroke="none" fill="#acacb4" fill-rule="evenodd"></path><path id="path3" d="M160.254 168.670 C 160.503 168.851,161.068 169.630,161.509 170.400 C 163.757 174.325,168.589 182.748,169.197 183.800 C 169.870 184.965,172.240 188.963,173.702 191.400 C 174.098 192.060,174.528 192.915,174.658 193.300 C 174.787 193.685,175.063 194.000,175.270 194.000 C 175.478 194.000,175.569 193.865,175.474 193.700 C 175.380 193.535,173.994 191.150,172.396 188.400 C 170.798 185.650,169.155 182.815,168.745 182.100 C 168.335 181.385,167.662 180.215,167.249 179.500 C 166.836 178.785,165.261 176.055,163.749 173.433 C 162.237 170.812,160.730 168.593,160.400 168.503 C 160.004 168.395,159.954 168.451,160.254 168.670 M175.600 194.588 C 175.600 194.794,176.017 195.539,179.362 201.302 C 180.607 203.447,181.729 205.472,181.856 205.800 C 182.058 206.329,174.047 206.409,112.742 206.499 L 43.400 206.600 43.294 218.900 L 43.188 231.200 118.594 231.200 L 194.000 231.200 194.000 228.747 C 194.000 226.304,191.858 221.638,187.741 215.109 C 187.223 214.288,186.800 213.542,186.800 213.449 C 186.800 213.357,186.110 212.138,185.266 210.741 C 184.423 209.343,183.189 207.210,182.525 206.000 C 181.861 204.790,180.952 203.170,180.504 202.400 C 180.056 201.630,178.841 199.515,177.802 197.700 C 176.101 194.725,175.600 194.018,175.600 194.588 M43.200 353.176 C 43.200 358.863,43.352 362.447,43.600 362.600 C 43.820 362.736,44.000 363.377,44.000 364.024 C 44.000 364.671,44.180 365.200,44.400 365.200 C 44.620 365.200,44.800 365.550,44.800 365.977 C 44.800 366.784,46.338 369.700,46.887 369.933 C 47.059 370.007,47.200 370.281,47.200 370.542 C 47.200 371.462,52.826 376.879,54.912 377.968 C 55.511 378.280,56.000 378.685,56.000 378.868 C 56.000 379.050,56.360 379.200,56.800 379.200 C 57.240 379.200,57.600 379.380,57.600 379.600 C 57.600 379.820,58.039 380.000,58.576 380.000 C 59.113 380.000,59.664 380.180,59.800 380.400 C 59.936 380.620,60.487 380.800,61.024 380.800 C 61.561 380.800,62.000 380.980,62.000 381.200 C 62.000 381.465,82.067 381.600,121.400 381.600 C 160.733 381.600,180.800 381.465,180.800 381.200 C 180.800 380.980,181.239 380.800,181.776 380.800 C 182.313 380.800,182.864 380.620,183.000 380.400 C 183.136 380.180,183.597 380.000,184.024 380.000 C 184.451 380.000,184.800 379.850,184.800 379.668 C 184.800 379.485,185.295 379.080,185.900 378.768 C 187.279 378.056,191.088 374.182,191.412 373.162 C 191.545 372.743,191.822 372.400,192.027 372.400 C 192.232 372.400,192.400 372.040,192.400 371.600 C 192.400 371.160,192.580 370.800,192.800 370.800 C 193.020 370.800,193.200 370.260,193.200 369.600 C 193.200 368.940,193.380 368.400,193.600 368.400 C 193.858 368.400,194.000 364.067,194.000 356.200 L 194.000 344.000 118.600 344.000 L 43.200 344.000 43.200 353.176 " stroke="none" fill="#55a8e3" fill-rule="evenodd"></path><path id="path4" d="M116.200 9.111 C 115.540 9.490,114.940 9.935,114.867 10.100 C 114.793 10.265,114.473 10.400,114.154 10.400 C 113.836 10.400,113.467 10.680,113.336 11.023 C 113.204 11.366,112.850 11.551,112.548 11.436 C 112.247 11.320,112.000 11.399,112.000 11.613 C 112.000 11.826,111.764 12.000,111.475 12.000 C 111.187 12.000,110.564 12.360,110.092 12.800 C 109.620 13.240,109.046 13.600,108.817 13.600 C 108.588 13.600,108.400 13.780,108.400 14.000 C 108.400 14.220,108.040 14.400,107.600 14.400 C 106.933 14.400,106.800 14.667,106.800 16.000 C 106.800 16.880,106.980 17.600,107.200 17.600 C 107.420 17.600,107.600 17.870,107.600 18.200 C 107.600 18.530,107.766 18.800,107.969 18.800 C 108.172 18.800,108.546 19.430,108.800 20.200 C 109.054 20.970,109.428 21.600,109.631 21.600 C 109.834 21.600,110.000 21.870,110.000 22.200 C 110.000 22.530,110.326 23.126,110.725 23.525 C 111.124 23.924,111.379 24.464,111.292 24.725 C 111.205 24.986,111.316 25.200,111.540 25.200 C 111.763 25.200,112.060 25.559,112.199 25.998 C 112.338 26.436,112.704 27.047,113.012 27.355 C 113.320 27.663,113.623 28.152,113.686 28.442 C 113.749 28.732,114.115 29.325,114.500 29.760 C 114.885 30.195,115.200 30.787,115.200 31.075 C 115.200 31.364,115.380 31.600,115.600 31.600 C 115.820 31.600,116.000 31.971,116.000 32.424 C 116.000 32.877,116.180 33.136,116.400 33.000 C 116.620 32.864,116.800 33.123,116.800 33.576 C 116.800 34.029,116.980 34.400,117.200 34.400 C 117.420 34.400,117.600 34.670,117.600 35.000 C 117.600 35.330,117.780 35.600,118.000 35.600 C 118.220 35.600,118.400 35.971,118.400 36.424 C 118.400 36.877,118.580 37.136,118.800 37.000 C 119.020 36.864,119.200 37.123,119.200 37.576 C 119.200 38.029,119.380 38.400,119.600 38.400 C 119.820 38.400,120.000 38.670,120.000 39.000 C 120.000 39.330,120.180 39.600,120.400 39.600 C 120.620 39.600,120.800 39.870,120.800 40.200 C 120.800 40.530,120.980 40.800,121.200 40.800 C 121.420 40.800,121.600 41.120,121.600 41.512 C 121.600 41.903,121.960 42.483,122.400 42.800 C 122.840 43.117,123.200 43.697,123.200 44.088 C 123.200 44.480,123.380 44.800,123.600 44.800 C 123.820 44.800,124.000 45.094,124.000 45.453 C 124.000 45.812,124.372 46.429,124.826 46.823 C 125.281 47.217,125.646 47.641,125.637 47.766 C 125.605 48.237,126.176 49.421,126.681 49.932 C 126.971 50.225,127.105 50.630,126.980 50.832 C 126.855 51.035,126.943 51.200,127.176 51.200 C 127.409 51.200,127.600 51.436,127.600 51.725 C 127.600 52.013,127.960 52.636,128.400 53.108 C 128.840 53.580,129.200 54.255,129.200 54.607 C 129.200 54.959,129.380 55.136,129.600 55.000 C 129.820 54.864,130.000 55.051,130.000 55.415 C 130.000 56.086,131.510 58.489,132.086 58.733 C 132.258 58.807,132.400 59.212,132.400 59.633 C 132.400 60.055,132.580 60.400,132.800 60.400 C 133.020 60.400,133.200 60.636,133.200 60.925 C 133.200 61.213,133.560 61.836,134.000 62.308 C 134.440 62.780,134.800 63.444,134.800 63.783 C 134.800 64.122,134.980 64.400,135.200 64.400 C 135.420 64.400,135.600 64.636,135.600 64.925 C 135.600 65.213,135.960 65.836,136.400 66.308 C 136.840 66.780,137.200 67.444,137.200 67.783 C 137.200 68.122,137.380 68.400,137.600 68.400 C 137.820 68.400,138.000 68.642,138.000 68.938 C 138.000 69.234,138.360 69.802,138.800 70.200 C 139.240 70.598,139.600 71.256,139.600 71.662 C 139.600 72.068,139.780 72.400,140.000 72.400 C 140.220 72.400,140.400 72.670,140.400 73.000 C 140.400 73.330,140.565 73.600,140.766 73.600 C 140.967 73.600,141.642 74.680,142.265 76.000 C 142.889 77.320,143.534 78.400,143.699 78.400 C 143.865 78.400,144.000 78.760,144.000 79.200 C 144.000 79.640,144.158 80.000,144.351 80.000 C 144.545 80.000,144.927 80.540,145.200 81.200 C 145.473 81.860,145.855 82.400,146.049 82.400 C 146.242 82.400,146.400 82.760,146.400 83.200 C 146.400 83.640,146.580 84.000,146.800 84.000 C 147.020 84.000,147.200 84.236,147.200 84.525 C 147.200 84.813,147.560 85.436,148.000 85.908 C 148.440 86.380,148.800 87.055,148.800 87.407 C 148.800 87.759,148.980 87.936,149.200 87.800 C 149.420 87.664,149.600 87.743,149.600 87.976 C 149.600 88.972,151.597 88.214,156.341 85.416 C 161.430 82.415,162.938 81.092,161.781 80.648 C 161.462 80.525,161.200 80.149,161.200 79.813 C 161.200 79.476,161.020 79.200,160.800 79.200 C 160.580 79.200,160.400 78.829,160.400 78.376 C 160.400 77.923,160.220 77.664,160.000 77.800 C 159.650 78.017,159.574 77.860,159.608 76.992 C 159.613 76.878,159.253 76.394,158.808 75.917 C 158.364 75.440,158.000 74.813,158.000 74.525 C 158.000 74.236,157.809 74.000,157.576 74.000 C 157.343 74.000,157.251 73.840,157.372 73.645 C 157.493 73.450,157.325 73.070,157.000 72.800 C 156.675 72.530,156.507 72.150,156.628 71.955 C 156.749 71.760,156.657 71.600,156.424 71.600 C 156.191 71.600,156.000 71.324,156.000 70.987 C 156.000 70.651,155.741 70.276,155.424 70.154 C 155.108 70.033,154.734 69.408,154.593 68.767 C 154.452 68.125,154.171 67.600,153.968 67.600 C 153.766 67.600,153.600 67.330,153.600 67.000 C 153.600 66.670,153.240 66.040,152.800 65.600 C 152.360 65.160,152.000 64.530,152.000 64.200 C 152.000 63.870,151.861 63.600,151.692 63.600 C 151.522 63.600,150.937 62.745,150.392 61.700 C 149.846 60.655,149.265 59.740,149.100 59.667 C 148.935 59.593,148.800 59.278,148.800 58.967 C 148.800 58.655,148.620 58.400,148.400 58.400 C 148.180 58.400,148.000 58.164,148.000 57.875 C 148.000 57.587,147.640 56.964,147.200 56.492 C 146.760 56.020,146.400 55.356,146.400 55.017 C 146.400 54.678,146.220 54.400,146.000 54.400 C 145.780 54.400,145.600 54.164,145.600 53.875 C 145.600 53.587,145.240 52.964,144.800 52.492 C 144.360 52.020,144.000 51.356,144.000 51.017 C 144.000 50.678,143.820 50.400,143.600 50.400 C 143.380 50.400,143.200 50.164,143.200 49.875 C 143.200 49.587,142.878 49.002,142.485 48.575 C 142.092 48.149,141.530 47.215,141.237 46.500 C 140.943 45.785,140.548 45.200,140.359 45.200 C 140.170 45.200,139.893 44.705,139.744 44.100 C 139.594 43.495,139.186 42.730,138.836 42.400 C 138.486 42.070,138.142 41.530,138.070 41.200 C 137.999 40.870,137.774 40.540,137.570 40.467 C 137.367 40.393,137.200 39.988,137.200 39.567 C 137.200 39.145,137.042 38.800,136.849 38.800 C 136.655 38.800,136.273 38.260,136.000 37.600 C 135.727 36.940,135.378 36.400,135.226 36.400 C 135.074 36.400,134.701 35.766,134.397 34.991 C 134.093 34.217,133.519 33.289,133.122 32.929 C 132.725 32.570,132.400 31.933,132.400 31.514 C 132.400 31.096,132.220 30.864,132.000 31.000 C 131.780 31.136,131.600 30.866,131.600 30.400 C 131.600 29.934,131.420 29.664,131.200 29.800 C 130.980 29.936,130.800 29.677,130.800 29.224 C 130.800 28.771,130.664 28.400,130.498 28.400 C 130.331 28.400,129.940 27.815,129.628 27.100 C 129.316 26.385,128.732 25.509,128.330 25.153 C 127.929 24.797,127.600 24.212,127.600 23.853 C 127.600 23.494,127.420 23.200,127.200 23.200 C 126.980 23.200,126.800 22.880,126.800 22.488 C 126.800 22.097,126.440 21.517,126.000 21.200 C 125.560 20.883,125.200 20.421,125.200 20.173 C 125.200 19.686,124.010 17.127,123.631 16.800 C 123.245 16.466,121.965 14.246,121.729 13.500 C 121.607 13.115,121.348 12.800,121.153 12.800 C 120.959 12.800,120.800 12.530,120.800 12.200 C 120.800 11.870,120.620 11.600,120.400 11.600 C 120.180 11.600,120.000 11.330,120.000 11.000 C 120.000 10.670,119.820 10.400,119.600 10.400 C 119.380 10.400,119.200 10.136,119.200 9.814 C 119.200 8.551,117.761 8.214,116.200 9.111 M193.600 107.200 C 193.600 107.420,193.870 107.600,194.200 107.600 C 194.530 107.600,194.800 107.420,194.800 107.200 C 194.800 106.980,194.530 106.800,194.200 106.800 C 193.870 106.800,193.600 106.980,193.600 107.200 M204.456 118.145 C 204.739 118.775,205.042 119.073,205.131 118.806 C 205.220 118.540,204.989 118.024,204.618 117.661 C 203.986 117.042,203.976 117.073,204.456 118.145 M215.400 122.800 C 215.536 123.020,215.287 123.200,214.847 123.200 C 214.407 123.200,213.936 123.380,213.800 123.600 C 213.664 123.820,213.203 124.000,212.776 124.000 C 212.349 124.000,212.000 124.180,212.000 124.400 C 212.000 124.620,211.730 124.800,211.400 124.800 C 211.070 124.800,210.800 124.980,210.800 125.200 C 210.800 125.420,210.575 125.601,210.300 125.602 C 210.025 125.603,209.225 126.143,208.522 126.802 C 207.819 127.461,207.149 128.000,207.033 128.000 C 206.918 128.000,205.453 128.810,203.778 129.800 C 202.104 130.790,200.677 131.600,200.608 131.600 C 200.538 131.600,199.297 132.320,197.848 133.200 C 196.400 134.080,195.109 134.800,194.979 134.800 C 194.850 134.800,193.959 135.340,193.000 136.000 C 192.041 136.660,191.063 137.200,190.828 137.200 C 190.593 137.200,190.400 137.338,190.400 137.506 C 190.400 137.674,189.725 138.118,188.900 138.494 C 187.388 139.181,185.170 140.429,184.800 140.801 C 184.690 140.911,184.060 141.265,183.400 141.588 C 182.740 141.911,181.448 142.676,180.528 143.288 C 179.608 143.899,178.767 144.400,178.659 144.400 C 178.551 144.400,176.874 145.319,174.932 146.441 C 166.343 151.405,165.722 151.722,165.205 151.403 C 164.982 151.265,164.800 151.343,164.800 151.576 C 164.800 151.809,164.530 152.000,164.200 152.000 C 163.870 152.000,163.600 152.180,163.600 152.400 C 163.600 152.620,163.240 152.800,162.800 152.800 C 162.360 152.800,162.000 152.980,162.000 153.200 C 162.000 153.420,161.764 153.600,161.475 153.600 C 161.187 153.600,160.564 153.960,160.092 154.400 C 159.620 154.840,159.123 155.200,158.988 155.200 C 158.435 155.200,157.600 156.399,157.600 157.195 C 157.600 157.664,157.446 157.952,157.258 157.836 C 157.070 157.720,156.881 158.969,156.837 160.612 C 156.787 162.487,156.915 163.600,157.179 163.600 C 157.411 163.600,157.600 163.960,157.600 164.400 C 157.600 164.840,157.780 165.200,158.000 165.200 C 158.220 165.200,158.400 165.544,158.400 165.964 C 158.400 166.631,160.120 168.465,161.118 168.862 C 161.415 168.980,167.200 178.608,167.200 178.984 C 167.200 179.058,167.937 180.331,168.837 181.812 C 169.737 183.294,170.817 185.113,171.237 185.853 C 172.943 188.864,173.361 189.591,178.222 198.000 C 179.938 200.970,182.358 205.200,183.599 207.400 C 184.840 209.600,186.248 212.075,186.728 212.900 C 192.366 222.598,194.000 225.796,194.000 227.134 C 194.000 227.830,194.180 228.400,194.400 228.400 C 194.620 228.400,194.800 228.760,194.800 229.200 C 194.800 229.640,194.980 230.000,195.200 230.000 C 195.420 230.000,195.600 230.270,195.600 230.600 C 195.600 230.930,195.746 231.200,195.925 231.200 C 196.104 231.200,196.498 231.830,196.800 232.600 C 197.102 233.370,197.496 234.000,197.675 234.000 C 197.854 234.000,198.000 234.360,198.000 234.800 C 198.000 235.240,198.180 235.600,198.400 235.600 C 198.620 235.600,198.800 235.836,198.800 236.125 C 198.800 236.413,199.160 237.036,199.600 237.508 C 200.040 237.980,200.400 238.674,200.400 239.050 C 200.400 239.426,200.517 239.616,200.661 239.473 C 200.943 239.191,202.000 240.995,202.000 241.757 C 202.000 242.014,202.360 242.483,202.800 242.800 C 203.240 243.117,203.600 243.697,203.600 244.088 C 203.600 244.480,203.735 244.801,203.900 244.803 C 204.237 244.807,205.200 246.725,205.200 247.391 C 205.200 247.629,205.560 248.083,206.000 248.400 C 206.440 248.717,206.800 249.297,206.800 249.688 C 206.800 250.080,206.980 250.400,207.200 250.400 C 207.420 250.400,207.600 250.771,207.600 251.224 C 207.600 251.677,207.780 251.936,208.000 251.800 C 208.220 251.664,208.400 251.835,208.400 252.179 C 208.400 252.892,210.271 256.488,211.190 257.542 C 212.100 258.585,212.800 259.912,212.800 260.595 C 212.800 260.928,212.980 261.200,213.200 261.200 C 213.420 261.200,213.600 261.436,213.600 261.725 C 213.600 262.013,213.960 262.636,214.400 263.108 C 214.840 263.580,215.200 264.244,215.200 264.583 C 215.200 264.922,215.380 265.200,215.600 265.200 C 215.820 265.200,216.000 265.560,216.000 266.000 C 216.000 266.440,216.180 266.800,216.400 266.800 C 216.620 266.800,216.800 267.036,216.800 267.325 C 216.800 267.613,217.160 268.236,217.600 268.708 C 218.040 269.180,218.400 269.844,218.400 270.183 C 218.400 270.522,218.536 270.800,218.702 270.800 C 218.869 270.800,219.264 271.385,219.580 272.100 C 219.897 272.815,220.480 273.749,220.878 274.175 C 221.275 274.602,221.600 275.187,221.600 275.475 C 221.600 275.764,221.780 276.000,222.000 276.000 C 222.220 276.000,222.400 276.360,222.400 276.800 C 222.400 277.240,222.580 277.600,222.800 277.600 C 223.020 277.600,223.200 277.836,223.200 278.125 C 223.200 278.413,223.560 279.036,224.000 279.508 C 224.440 279.980,224.800 280.494,224.800 280.649 C 224.800 281.257,226.172 284.000,226.477 284.000 C 226.655 284.000,226.800 284.248,226.800 284.551 C 226.800 284.854,227.074 285.330,227.410 285.608 C 227.745 285.886,227.927 286.207,227.813 286.320 C 227.700 286.434,227.807 286.768,228.052 287.063 C 228.383 287.461,228.367 287.758,227.992 288.210 C 227.714 288.545,227.597 288.931,227.734 289.067 C 227.870 289.203,228.092 289.026,228.227 288.674 C 228.400 288.224,228.790 288.098,229.546 288.249 C 230.357 288.411,231.585 287.917,234.561 286.232 C 236.729 285.004,238.659 284.000,238.851 284.000 C 239.043 284.000,239.200 283.820,239.200 283.600 C 239.200 283.380,239.370 283.200,239.579 283.200 C 239.909 283.200,241.665 282.218,246.200 279.498 C 246.860 279.102,247.715 278.672,248.100 278.542 C 248.485 278.413,248.800 278.181,248.800 278.028 C 248.800 277.875,249.430 277.502,250.200 277.200 C 250.970 276.898,251.600 276.525,251.600 276.372 C 251.600 276.219,251.915 275.990,252.300 275.864 C 252.685 275.738,253.900 275.086,255.000 274.415 C 256.100 273.743,257.720 272.810,258.600 272.341 C 259.480 271.871,262.324 270.253,264.919 268.744 C 267.515 267.235,269.795 266.000,269.986 266.000 C 270.177 266.000,270.393 265.865,270.467 265.700 C 270.634 265.324,272.764 264.025,273.700 263.729 C 274.085 263.607,274.400 263.348,274.400 263.153 C 274.400 262.959,274.760 262.800,275.200 262.800 C 275.640 262.800,276.000 262.641,276.000 262.447 C 276.000 262.252,276.315 261.993,276.700 261.871 C 277.385 261.654,279.604 260.396,280.000 260.000 C 280.372 259.628,282.591 258.380,284.100 257.694 C 284.925 257.318,285.600 256.874,285.600 256.706 C 285.600 256.538,285.762 256.400,285.960 256.400 C 288.031 256.400,297.045 249.712,296.163 248.830 C 296.050 248.716,295.796 248.883,295.600 249.200 C 295.306 249.676,295.191 249.638,294.951 248.989 C 294.790 248.555,294.546 248.110,294.408 248.000 C 294.271 247.890,293.848 247.133,293.468 246.317 C 293.089 245.501,292.607 244.728,292.397 244.598 C 292.187 244.468,291.471 243.188,290.807 241.752 C 290.143 240.316,289.327 238.870,288.996 238.539 C 288.664 238.207,288.495 237.770,288.620 237.568 C 288.745 237.365,288.657 237.200,288.424 237.200 C 288.191 237.200,288.000 237.007,288.000 236.772 C 288.000 236.537,287.460 235.559,286.800 234.600 C 286.140 233.641,285.600 232.573,285.600 232.228 C 285.600 231.883,285.420 231.600,285.200 231.600 C 284.980 231.600,284.800 231.300,284.800 230.933 C 284.800 230.567,284.683 230.384,284.539 230.527 C 284.240 230.827,283.200 228.984,283.200 228.154 C 283.200 227.849,283.064 227.600,282.898 227.600 C 282.731 227.600,282.340 227.015,282.028 226.300 C 281.716 225.585,281.132 224.709,280.730 224.353 C 280.329 223.997,280.000 223.412,280.000 223.053 C 280.000 222.694,279.820 222.400,279.600 222.400 C 279.380 222.400,279.200 222.040,279.200 221.600 C 279.200 221.160,279.020 220.800,278.800 220.800 C 278.580 220.800,278.400 220.564,278.400 220.275 C 278.400 219.987,278.085 219.397,277.700 218.963 C 276.580 217.703,275.596 215.740,275.911 215.392 C 276.070 215.216,276.016 215.176,275.791 215.303 C 275.567 215.430,275.041 214.694,274.623 213.667 C 274.205 212.640,273.144 210.731,272.265 209.424 C 271.386 208.117,270.667 206.812,270.667 206.524 C 270.667 206.236,270.517 206.000,270.333 206.000 C 270.150 206.000,270.000 205.764,270.000 205.475 C 270.000 205.187,269.685 204.593,269.300 204.155 C 268.407 203.139,267.600 201.732,267.600 201.189 C 267.600 200.957,267.240 200.380,266.800 199.908 C 266.360 199.436,266.000 198.813,266.000 198.525 C 266.000 198.236,265.820 198.000,265.600 198.000 C 265.380 198.000,265.200 197.640,265.200 197.200 C 265.200 196.760,265.042 196.400,264.849 196.400 C 264.655 196.400,264.273 195.860,264.000 195.200 C 263.727 194.540,263.378 194.000,263.226 194.000 C 263.074 194.000,262.702 193.370,262.400 192.600 C 262.098 191.830,261.704 191.200,261.525 191.200 C 261.346 191.200,261.200 190.880,261.200 190.488 C 261.200 190.097,260.840 189.517,260.400 189.200 C 259.960 188.883,259.600 188.303,259.600 187.912 C 259.600 187.520,259.420 187.200,259.200 187.200 C 258.980 187.200,258.800 186.840,258.800 186.400 C 258.800 185.960,258.620 185.600,258.400 185.600 C 258.180 185.600,258.000 185.253,258.000 184.829 C 258.000 184.404,257.730 183.787,257.400 183.457 C 257.070 183.127,256.800 182.594,256.800 182.271 C 256.800 181.949,256.519 181.578,256.175 181.446 C 255.831 181.314,255.644 181.052,255.761 180.863 C 255.877 180.675,255.619 180.141,255.186 179.677 C 254.754 179.213,254.400 178.556,254.400 178.217 C 254.400 177.878,254.220 177.600,254.000 177.600 C 253.780 177.600,253.600 177.358,253.600 177.062 C 253.600 176.766,253.240 176.198,252.800 175.800 C 252.360 175.402,252.000 174.834,252.000 174.538 C 252.000 174.242,251.820 174.000,251.600 174.000 C 251.380 174.000,251.200 173.640,251.200 173.200 C 251.200 172.760,251.020 172.400,250.800 172.400 C 250.580 172.400,250.400 172.040,250.400 171.600 C 250.400 171.160,250.220 170.800,250.000 170.800 C 249.780 170.800,249.600 170.564,249.600 170.275 C 249.600 169.987,249.240 169.364,248.800 168.892 C 248.360 168.420,248.000 167.756,248.000 167.417 C 248.000 167.078,247.820 166.800,247.600 166.800 C 247.380 166.800,247.200 166.440,247.200 166.000 C 247.200 165.560,247.020 165.200,246.800 165.200 C 246.580 165.200,246.400 164.964,246.400 164.675 C 246.400 164.387,246.040 163.764,245.600 163.292 C 245.160 162.820,244.800 162.156,244.800 161.817 C 244.800 161.478,244.664 161.200,244.498 161.200 C 244.331 161.200,243.956 160.659,243.663 159.998 C 243.370 159.336,242.966 158.897,242.765 159.021 C 242.564 159.146,242.400 158.877,242.400 158.424 C 242.400 157.971,242.220 157.600,242.000 157.600 C 241.780 157.600,241.600 157.336,241.600 157.014 C 241.600 156.201,240.324 153.600,239.926 153.600 C 239.747 153.600,239.600 153.240,239.600 152.800 C 239.600 152.360,239.441 152.000,239.247 152.000 C 239.052 152.000,238.778 151.685,238.637 151.300 C 238.299 150.380,237.141 148.254,236.838 148.000 C 236.612 147.810,235.196 145.250,234.240 143.303 C 233.998 142.810,233.665 142.405,233.500 142.403 C 233.335 142.401,233.200 142.130,233.200 141.800 C 233.200 141.470,233.020 141.200,232.800 141.200 C 232.580 141.200,232.400 140.922,232.400 140.583 C 232.400 140.244,232.040 139.580,231.600 139.108 C 231.160 138.636,230.800 138.013,230.800 137.725 C 230.800 137.436,230.620 137.200,230.400 137.200 C 230.180 137.200,230.000 136.840,230.000 136.400 C 230.000 135.960,229.820 135.600,229.600 135.600 C 229.380 135.600,229.200 135.280,229.200 134.888 C 229.200 134.497,228.840 133.917,228.400 133.600 C 227.960 133.283,227.600 132.703,227.600 132.312 C 227.600 131.920,227.420 131.600,227.200 131.600 C 226.980 131.600,226.800 131.240,226.800 130.800 C 226.800 130.360,226.620 130.000,226.400 130.000 C 226.180 130.000,226.000 129.745,226.000 129.433 C 226.000 129.122,225.843 128.807,225.651 128.733 C 225.459 128.660,224.816 127.635,224.221 126.455 C 223.624 125.268,222.797 124.220,222.370 124.108 C 221.947 123.997,221.600 123.748,221.600 123.553 C 221.600 123.359,221.240 123.200,220.800 123.200 C 220.360 123.200,220.000 123.020,220.000 122.800 C 220.000 122.577,218.925 122.400,217.576 122.400 C 216.063 122.400,215.246 122.550,215.400 122.800 M156.844 127.644 C 155.758 128.811,156.078 129.131,157.244 128.044 C 157.738 127.585,158.038 127.105,157.911 126.978 C 157.784 126.851,157.304 127.151,156.844 127.644 M156.933 138.200 C 156.933 138.530,157.050 138.800,157.192 138.800 C 157.334 138.800,157.698 139.430,158.000 140.200 C 158.302 140.970,158.706 141.600,158.898 141.600 C 159.090 141.600,159.136 141.780,159.000 142.000 C 158.864 142.220,158.943 142.400,159.176 142.400 C 159.409 142.400,159.600 142.318,159.600 142.219 C 159.600 141.738,158.635 140.000,158.368 140.000 C 158.200 140.000,157.945 139.460,157.800 138.800 C 157.527 137.557,156.933 137.146,156.933 138.200 M229.600 138.600 C 229.600 138.930,229.780 139.200,230.000 139.200 C 230.220 139.200,230.400 139.436,230.400 139.725 C 230.400 140.013,230.715 140.598,231.100 141.025 C 231.485 141.451,232.066 142.340,232.391 143.000 C 232.716 143.660,233.391 144.871,233.891 145.692 C 235.044 147.584,235.033 147.746,233.700 148.429 C 232.636 148.975,229.065 151.024,226.600 152.502 C 225.940 152.898,225.085 153.328,224.700 153.458 C 224.315 153.587,224.000 153.819,224.000 153.972 C 224.000 154.125,223.370 154.498,222.600 154.800 C 221.830 155.102,221.200 155.496,221.200 155.675 C 221.200 155.854,220.930 156.000,220.600 156.000 C 220.270 156.000,220.000 156.138,220.000 156.306 C 220.000 156.474,219.325 156.922,218.500 157.301 C 217.675 157.680,216.190 158.468,215.200 159.052 C 212.826 160.452,211.731 161.083,207.158 163.688 L 203.316 165.876 201.958 163.476 C 199.681 159.452,199.364 158.909,198.670 157.850 C 197.562 156.159,197.797 155.899,203.252 152.792 C 206.141 151.146,209.336 149.297,210.352 148.682 C 211.369 148.068,212.515 147.462,212.900 147.336 C 213.285 147.210,213.600 146.992,213.600 146.851 C 213.600 146.710,214.185 146.342,214.900 146.032 C 215.615 145.723,216.952 144.959,217.872 144.335 C 218.792 143.711,219.737 143.200,219.972 143.200 C 220.207 143.200,220.400 143.020,220.400 142.800 C 220.400 142.580,220.760 142.400,221.200 142.400 C 221.640 142.400,222.000 142.241,222.000 142.047 C 222.000 141.852,222.315 141.593,222.700 141.471 C 223.385 141.254,225.604 139.996,226.000 139.600 C 227.254 138.346,229.600 137.694,229.600 138.600 M242.924 161.400 C 243.406 162.280,243.890 163.090,244.000 163.200 C 244.110 163.310,244.397 163.760,244.638 164.200 C 245.678 166.102,246.213 167.013,246.400 167.200 C 246.510 167.310,246.821 167.797,247.092 168.281 C 247.614 169.217,247.581 169.267,245.800 170.227 C 244.247 171.064,242.998 171.802,242.800 172.000 C 242.404 172.396,240.185 173.654,239.500 173.871 C 239.115 173.993,238.800 174.252,238.800 174.447 C 238.800 174.641,238.440 174.800,238.000 174.800 C 237.560 174.800,237.200 174.959,237.200 175.153 C 237.200 175.348,236.885 175.610,236.500 175.736 C 236.115 175.862,235.080 176.400,234.200 176.933 C 227.532 180.966,226.000 181.569,226.000 180.157 C 226.000 179.851,225.862 179.600,225.694 179.600 C 225.526 179.600,225.082 178.925,224.706 178.100 C 224.019 176.588,222.771 174.370,222.399 174.000 C 221.978 173.579,221.073 171.594,221.233 171.438 C 221.400 171.274,226.639 168.147,229.100 166.742 C 229.815 166.334,231.030 165.640,231.800 165.200 C 232.570 164.760,233.875 164.019,234.700 163.553 C 235.525 163.087,236.650 162.396,237.200 162.016 C 237.750 161.636,238.785 161.073,239.500 160.765 C 240.215 160.457,240.800 160.055,240.800 159.873 C 240.800 159.007,242.141 159.972,242.924 161.400 M255.200 182.456 C 255.200 182.653,255.982 184.116,256.938 185.707 C 260.007 190.818,260.075 191.028,258.849 191.659 C 258.272 191.956,257.710 192.289,257.600 192.399 C 257.490 192.510,256.680 192.978,255.800 193.439 C 253.868 194.453,251.762 195.642,247.000 198.410 C 243.408 200.498,241.760 201.446,239.955 202.462 C 239.430 202.758,238.910 203.090,238.800 203.200 C 238.690 203.310,237.880 203.774,237.000 204.230 C 234.927 205.306,233.451 206.149,233.200 206.401 C 233.090 206.511,232.460 206.871,231.800 207.200 C 231.140 207.529,230.510 207.889,230.400 207.999 C 229.017 209.386,226.800 208.425,226.800 206.438 C 226.800 206.197,226.620 206.000,226.400 206.000 C 226.180 206.000,226.000 205.640,226.000 205.200 C 226.000 204.760,225.841 204.400,225.647 204.400 C 225.452 204.400,225.193 204.085,225.071 203.700 C 224.775 202.764,223.476 200.634,223.100 200.467 C 222.288 200.106,222.945 198.923,224.300 198.306 C 225.809 197.620,228.028 196.372,228.400 196.000 C 228.600 195.800,231.410 194.269,233.097 193.440 C 233.590 193.198,233.995 192.865,233.997 192.700 C 233.999 192.535,234.255 192.400,234.567 192.400 C 234.878 192.400,235.193 192.265,235.267 192.100 C 235.387 191.830,237.489 190.622,239.897 189.440 C 240.390 189.198,240.795 188.865,240.797 188.700 C 240.799 188.535,240.968 188.400,241.172 188.400 C 241.377 188.400,243.942 187.027,246.872 185.349 C 254.540 180.957,254.084 181.172,254.679 181.666 C 254.966 181.903,255.200 182.259,255.200 182.456 M267.405 203.571 C 269.031 206.745,269.787 208.000,270.071 208.000 C 270.252 208.000,270.400 208.247,270.400 208.550 C 270.400 208.852,270.848 209.901,271.396 210.881 L 272.391 212.662 269.096 214.541 C 267.283 215.574,264.990 216.891,264.000 217.466 C 262.295 218.458,260.922 219.242,258.755 220.462 C 258.230 220.758,257.710 221.090,257.600 221.200 C 257.490 221.310,256.995 221.625,256.500 221.900 C 256.005 222.175,255.195 222.625,254.700 222.900 C 254.205 223.175,253.710 223.511,253.600 223.646 C 253.490 223.781,253.019 224.011,252.553 224.156 C 251.547 224.470,251.443 224.333,247.962 218.100 C 247.502 217.275,246.962 216.429,246.762 216.220 C 245.872 215.286,246.503 214.248,248.600 213.201 C 249.260 212.871,249.890 212.511,250.000 212.401 C 250.394 212.005,252.613 210.746,253.300 210.529 C 253.685 210.407,254.000 210.148,254.000 209.953 C 254.000 209.759,254.360 209.600,254.800 209.600 C 255.240 209.600,255.600 209.441,255.600 209.247 C 255.600 209.052,255.915 208.793,256.300 208.671 C 256.991 208.452,259.212 207.191,259.600 206.797 C 259.710 206.685,260.790 206.067,262.000 205.424 C 263.210 204.780,264.740 203.927,265.400 203.528 C 266.890 202.628,266.922 202.629,267.405 203.571 M280.032 225.500 C 280.344 226.105,280.689 226.690,280.799 226.800 C 280.910 226.910,281.378 227.720,281.839 228.600 C 282.301 229.480,283.172 231.074,283.776 232.143 C 284.962 234.242,284.940 234.311,282.700 235.562 C 281.875 236.023,280.595 236.743,279.855 237.162 C 279.115 237.582,278.080 238.167,277.555 238.462 C 277.030 238.758,276.510 239.090,276.400 239.200 C 276.004 239.596,273.785 240.854,273.100 241.071 C 272.715 241.193,272.400 241.452,272.400 241.647 C 272.400 241.841,272.040 242.000,271.600 242.000 C 271.160 242.000,270.800 242.159,270.800 242.353 C 270.800 242.548,270.485 242.810,270.100 242.936 C 269.715 243.062,268.590 243.648,267.600 244.239 C 266.610 244.830,264.990 245.766,264.000 246.320 C 263.010 246.873,261.057 248.017,259.659 248.863 C 258.262 249.708,257.029 250.400,256.921 250.400 C 256.812 250.400,256.246 250.731,255.662 251.135 C 253.307 252.765,253.540 252.941,250.177 247.000 C 249.928 246.560,249.256 245.373,248.684 244.362 L 247.644 242.525 249.122 241.724 C 249.935 241.284,251.230 240.556,252.000 240.107 C 252.770 239.658,255.200 238.258,257.400 236.995 C 259.600 235.732,261.985 234.362,262.700 233.950 C 263.415 233.537,264.630 232.840,265.400 232.400 C 266.170 231.960,267.430 231.240,268.200 230.800 C 269.744 229.918,271.775 228.765,273.245 227.938 C 273.770 227.642,274.290 227.310,274.400 227.200 C 274.796 226.804,277.015 225.546,277.700 225.329 C 278.085 225.207,278.400 224.948,278.400 224.753 C 278.400 223.967,279.501 224.471,280.032 225.500 M43.200 287.400 L 43.200 343.600 118.600 343.600 L 194.000 343.600 194.000 287.400 L 194.000 231.200 118.600 231.200 L 43.200 231.200 43.200 287.400 M312.000 242.366 C 312.000 242.751,313.937 242.826,314.168 242.450 C 314.253 242.313,313.800 242.162,313.161 242.116 C 312.522 242.070,312.000 242.182,312.000 242.366 M319.383 244.427 C 319.238 244.662,319.496 244.952,319.955 245.072 C 320.415 245.193,320.692 245.450,320.572 245.645 C 320.451 245.840,320.543 246.000,320.776 246.000 C 321.525 246.000,321.227 245.132,320.404 244.917 C 319.967 244.803,319.708 244.550,319.828 244.355 C 319.949 244.160,319.957 244.000,319.847 244.000 C 319.737 244.000,319.528 244.192,319.383 244.427 M323.757 250.233 C 323.891 250.581,324.000 250.941,324.000 251.033 C 324.000 251.125,324.163 251.200,324.363 251.200 C 324.562 251.200,324.631 250.840,324.516 250.400 C 324.401 249.960,324.128 249.600,323.911 249.600 C 323.693 249.600,323.624 249.885,323.757 250.233 M127.251 256.565 C 130.723 258.019,131.356 259.697,131.532 267.900 L 131.679 274.800 138.402 274.800 C 149.151 274.800,150.071 275.686,150.333 286.291 C 150.654 299.282,149.674 300.394,137.900 300.398 L 131.600 300.400 131.600 307.246 C 131.600 318.384,131.149 318.800,119.049 318.800 C 110.492 318.800,109.883 318.703,108.065 317.050 C 106.304 315.449,106.000 313.970,106.000 306.997 L 106.000 300.491 99.100 300.326 C 87.843 300.057,87.032 299.105,87.268 286.440 C 87.472 275.527,88.215 274.800,99.154 274.800 L 106.000 274.800 106.000 268.063 C 106.000 260.079,106.489 258.558,109.584 256.921 C 111.750 255.776,124.742 255.514,127.251 256.565 M315.630 268.164 C 315.271 268.597,315.274 268.798,315.642 269.026 C 315.947 269.215,316.019 269.155,315.838 268.862 C 315.671 268.591,315.801 268.400,316.153 268.400 C 316.483 268.400,316.864 268.220,317.000 268.000 C 317.383 267.381,316.158 267.528,315.630 268.164 M313.100 269.665 C 312.495 269.886,312.000 270.268,312.000 270.513 C 312.000 270.824,312.146 270.814,312.480 270.480 C 312.744 270.216,313.284 270.000,313.680 270.000 C 314.076 270.000,314.400 269.820,314.400 269.600 C 314.400 269.380,314.355 269.214,314.300 269.232 C 314.245 269.249,313.705 269.444,313.100 269.665 M306.000 272.692 C 305.230 273.063,304.510 273.478,304.400 273.615 C 304.290 273.752,303.615 274.119,302.900 274.430 C 302.185 274.741,301.600 275.098,301.600 275.223 C 301.600 275.348,300.970 275.698,300.200 276.000 C 299.430 276.302,298.800 276.696,298.800 276.875 C 298.800 277.054,298.630 277.200,298.423 277.200 C 298.216 277.200,295.410 278.730,292.188 280.600 C 288.967 282.470,286.166 284.000,285.965 284.000 C 285.764 284.000,285.600 284.146,285.600 284.325 C 285.600 284.504,284.970 284.898,284.200 285.200 C 283.430 285.502,282.800 285.875,282.800 286.028 C 282.800 286.181,282.485 286.407,282.100 286.529 C 281.415 286.746,279.196 288.004,278.800 288.400 C 278.548 288.652,277.069 289.496,275.000 290.570 C 274.120 291.026,273.310 291.490,273.200 291.601 C 273.090 291.711,272.460 292.065,271.800 292.386 C 271.140 292.708,270.150 293.272,269.600 293.639 C 268.405 294.437,266.321 295.627,262.800 297.524 C 261.370 298.294,259.722 299.257,259.138 299.662 C 258.554 300.068,257.952 300.400,257.800 300.400 C 257.648 300.400,257.046 300.739,256.462 301.153 C 254.943 302.229,252.048 303.896,250.300 304.699 C 249.475 305.078,248.800 305.526,248.800 305.694 C 248.800 305.862,248.530 306.000,248.200 306.000 C 247.870 306.000,247.600 306.180,247.600 306.400 C 247.600 306.620,247.240 306.800,246.800 306.800 C 246.360 306.800,246.000 306.980,246.000 307.200 C 246.000 307.420,245.730 307.600,245.400 307.600 C 245.070 307.600,244.800 307.736,244.800 307.902 C 244.800 308.069,244.246 308.450,243.569 308.749 C 242.179 309.365,241.772 310.076,242.223 311.100 C 242.392 311.485,242.547 311.890,242.566 312.000 C 242.585 312.110,243.043 312.920,243.584 313.800 C 244.124 314.680,244.836 315.940,245.166 316.600 C 245.496 317.260,245.864 317.890,245.984 318.000 C 246.103 318.110,246.471 318.740,246.800 319.400 C 247.129 320.060,247.489 320.690,247.600 320.800 C 247.711 320.910,248.071 321.540,248.401 322.200 C 248.730 322.860,249.315 323.749,249.700 324.175 C 250.085 324.602,250.400 325.187,250.400 325.475 C 250.400 325.764,250.580 326.000,250.800 326.000 C 251.020 326.000,251.200 326.278,251.200 326.618 C 251.200 327.407,252.977 329.200,253.758 329.200 C 254.085 329.200,254.464 329.380,254.600 329.600 C 254.736 329.820,255.917 330.000,257.224 330.000 C 258.541 330.000,259.600 329.822,259.600 329.600 C 259.600 329.380,259.960 329.200,260.400 329.200 C 260.840 329.200,261.200 329.020,261.200 328.800 C 261.200 328.580,261.560 328.400,262.000 328.400 C 262.440 328.400,262.801 328.265,262.803 328.100 C 262.807 327.763,264.725 326.800,265.391 326.800 C 265.629 326.800,266.083 326.440,266.400 326.000 C 266.717 325.560,267.171 325.200,267.409 325.200 C 268.037 325.200,269.993 324.246,269.997 323.937 C 269.999 323.793,270.405 323.750,270.900 323.842 C 271.395 323.934,271.594 323.908,271.342 323.785 C 270.660 323.452,271.118 322.261,272.121 321.761 C 272.604 321.520,275.250 320.013,278.000 318.412 C 282.992 315.505,284.449 314.661,286.900 313.253 C 287.615 312.843,291.660 310.503,295.888 308.053 C 300.570 305.341,304.011 303.597,304.688 303.591 C 305.300 303.586,306.250 303.230,306.800 302.800 C 307.350 302.370,308.025 302.014,308.300 302.009 C 308.575 302.004,308.800 301.820,308.800 301.600 C 308.800 301.380,309.160 301.200,309.600 301.200 C 310.040 301.200,310.400 301.042,310.400 300.849 C 310.400 300.655,310.940 300.273,311.600 300.000 C 312.260 299.727,312.800 299.345,312.800 299.151 C 312.800 298.958,313.160 298.800,313.600 298.800 C 314.040 298.800,314.400 298.620,314.400 298.400 C 314.400 298.180,314.599 298.000,314.842 298.000 C 315.462 298.000,317.373 296.278,317.530 295.579 C 317.602 295.261,317.827 294.940,318.030 294.867 C 318.929 294.543,318.041 287.200,317.103 287.200 C 316.936 287.200,316.800 286.964,316.800 286.675 C 316.800 286.387,316.440 285.764,316.000 285.292 C 315.560 284.820,315.200 284.156,315.200 283.817 C 315.200 283.478,315.020 283.200,314.800 283.200 C 314.580 283.200,314.400 282.829,314.400 282.376 C 314.400 281.923,314.220 281.664,314.000 281.800 C 313.780 281.936,313.600 281.677,313.600 281.224 C 313.600 280.771,313.420 280.400,313.200 280.400 C 312.980 280.400,312.800 280.130,312.800 279.800 C 312.800 279.470,312.620 279.200,312.400 279.200 C 312.180 279.200,312.000 278.840,312.000 278.400 C 312.000 277.960,311.864 277.600,311.698 277.600 C 311.531 277.600,311.156 277.059,310.863 276.398 C 310.565 275.725,310.143 275.312,309.904 275.460 C 309.663 275.608,309.592 275.536,309.742 275.294 C 309.888 275.058,309.736 274.593,309.404 274.261 C 309.072 273.929,308.800 273.394,308.800 273.071 C 308.800 272.749,308.515 272.376,308.167 272.243 C 307.397 271.947,307.662 271.892,306.000 272.692 M222.279 291.738 C 222.132 292.122,222.346 292.223,223.032 292.092 C 223.559 291.991,223.892 291.749,223.772 291.554 C 223.440 291.017,222.512 291.131,222.279 291.738 M218.000 294.272 C 217.113 295.210,217.097 295.278,217.853 294.876 C 218.322 294.626,218.811 294.147,218.940 293.811 C 219.254 292.994,219.168 293.036,218.000 294.272 M213.742 298.306 C 213.888 298.542,213.740 299.003,213.414 299.329 C 212.889 299.853,212.899 299.952,213.498 300.182 C 213.871 300.325,214.052 300.319,213.902 300.169 C 213.751 300.018,213.802 299.569,214.015 299.172 C 214.280 298.677,214.256 298.358,213.939 298.162 C 213.665 297.993,213.584 298.051,213.742 298.306 M212.084 303.721 C 212.021 304.625,212.092 305.241,212.243 305.091 C 212.607 304.726,212.777 302.433,212.454 302.234 C 212.314 302.148,212.148 302.817,212.084 303.721 M212.967 310.256 C 213.024 310.641,213.279 311.026,213.535 311.112 C 214.186 311.329,214.116 310.594,213.432 310.027 C 212.976 309.648,212.884 309.693,212.967 310.256 M213.882 311.868 C 213.749 312.082,213.992 312.558,214.420 312.925 C 215.318 313.693,215.452 313.297,214.661 312.216 C 214.361 311.806,214.015 311.651,213.882 311.868 M236.080 314.080 C 235.315 314.845,235.524 315.254,236.400 314.707 C 237.208 314.202,237.469 313.600,236.880 313.600 C 236.704 313.600,236.344 313.816,236.080 314.080 M228.400 318.060 C 228.400 318.220,228.760 318.323,229.200 318.290 C 229.640 318.257,230.000 318.099,230.000 317.940 C 230.000 317.780,229.640 317.677,229.200 317.710 C 228.760 317.743,228.400 317.901,228.400 318.060 M315.214 322.624 C 315.184 323.530,316.255 324.561,316.603 323.961 C 316.783 323.651,316.774 323.540,316.585 323.713 C 316.396 323.884,316.014 323.614,315.735 323.113 C 315.456 322.611,315.222 322.391,315.214 322.624 M317.172 325.547 C 317.392 325.958,317.443 326.437,317.286 326.612 C 317.129 326.786,317.225 326.799,317.500 326.641 C 317.785 326.477,318.000 326.564,318.000 326.843 C 318.000 327.113,318.088 327.245,318.196 327.138 C 318.461 326.872,317.480 324.807,317.086 324.803 C 316.913 324.801,316.952 325.136,317.172 325.547 M353.883 327.551 C 354.805 328.437,355.425 328.687,355.001 328.002 C 354.866 327.783,354.360 327.401,353.878 327.153 L 353.000 326.701 353.883 327.551 M274.813 330.251 C 274.839 330.960,276.000 332.207,276.000 331.525 C 276.000 331.180,275.730 330.674,275.400 330.400 C 275.070 330.126,274.806 330.059,274.813 330.251 M321.889 333.649 C 322.136 333.896,322.235 334.391,322.110 334.749 C 321.941 335.232,322.004 335.289,322.354 334.967 C 322.888 334.477,322.543 333.200,321.877 333.200 C 321.568 333.200,321.571 333.331,321.889 333.649 M280.150 339.650 C 280.287 339.953,280.511 340.515,280.646 340.900 C 280.782 341.285,281.077 341.600,281.303 341.600 C 281.528 341.600,281.967 341.915,282.278 342.300 C 282.779 342.920,282.789 342.886,282.362 342.000 C 282.097 341.450,281.682 340.872,281.440 340.715 C 281.198 340.558,281.000 340.213,281.000 339.948 C 281.000 339.683,280.752 339.384,280.450 339.283 C 280.098 339.166,279.990 339.298,280.150 339.650 M283.818 345.700 C 283.968 346.195,284.255 346.776,284.456 346.991 C 284.657 347.206,284.619 346.801,284.372 346.091 C 283.865 344.638,283.397 344.308,283.818 345.700 M286.425 350.257 C 286.411 350.729,286.681 351.222,287.025 351.354 C 287.369 351.486,287.539 351.776,287.402 351.997 C 287.265 352.219,287.343 352.400,287.576 352.400 C 288.126 352.400,288.123 351.723,287.572 351.383 C 287.337 351.237,286.988 350.732,286.797 350.259 L 286.451 349.400 286.425 350.257 " stroke="none" fill="#e3e2ea" fill-rule="evenodd"></path></g></svg>